<svg width="155" height="150" viewBox="0 0 155 150" fill="none" xmlns="http://www.w3.org/2000/svg">
<path d="M76.1748 150C117.499 150 150.999 131.782 150.999 109.309C150.999 86.8354 117.499 68.6173 76.1748 68.6173C34.8503 68.6173 1.35022 86.8354 1.35022 109.309C1.35022 131.782 34.8503 150 76.1748 150Z" fill="#F5F5F5"/>
<path d="M76.1749 107.178C82.4014 107.178 87.4489 104.263 87.4489 100.667C87.4489 97.0711 82.4014 94.156 76.1749 94.156C69.9485 94.156 64.901 97.0711 64.901 100.667C64.901 104.263 69.9485 107.178 76.1749 107.178Z" fill="#E0E0E0"/>
<path d="M118.219 124.578C128.062 124.578 136.041 119.972 136.041 114.289C136.041 108.606 128.062 104 118.219 104C108.377 104 100.397 108.606 100.397 114.289C100.397 119.972 108.377 124.578 118.219 124.578Z" fill="#E0E0E0"/>
<path d="M30.7641 125.69C40.6069 125.69 48.586 121.084 48.586 115.401C48.586 109.718 40.6069 105.112 30.7641 105.112C20.9213 105.112 12.9421 109.718 12.9421 115.401C12.9421 121.084 20.9213 125.69 30.7641 125.69Z" fill="#E0E0E0"/>
<path d="M144.837 106.977L141.471 105.601C141.048 102.691 140.804 99.7583 140.741 96.8188C140.741 91.3191 144.167 84.5936 148.515 85.719C152.862 86.8444 147.289 92.9971 146.384 97.7499C145.48 102.503 144.837 106.977 144.837 106.977Z" fill="#4EBFA0"/>
<path opacity="0.3" d="M144.837 106.977L141.471 105.601C141.048 102.691 140.804 99.7583 140.741 96.8188C140.741 91.3191 144.167 84.5936 148.515 85.719C152.862 86.8444 147.289 92.9971 146.384 97.7499C145.48 102.503 144.837 106.977 144.837 106.977Z" fill="#333930"/>
<path d="M143.205 106.552C143.242 106.547 143.275 106.528 143.298 106.498C143.321 106.469 143.331 106.431 143.326 106.395C141.722 94.3368 147.144 87.6381 147.198 87.5812C147.222 87.5523 147.233 87.5151 147.23 87.4777C147.226 87.4404 147.208 87.4059 147.179 87.3819C147.15 87.3579 147.113 87.3464 147.076 87.3498C147.039 87.3533 147.004 87.3715 146.98 87.4003C146.926 87.4673 141.423 94.2464 143.045 106.431C143.047 106.45 143.053 106.468 143.063 106.484C143.072 106.5 143.085 106.514 143.1 106.525C143.115 106.537 143.132 106.545 143.15 106.549C143.168 106.554 143.187 106.555 143.205 106.552V106.552Z" fill="white"/>
<path d="M146.565 107.781L144.806 106.984C144.28 104.275 144.36 101.483 145.041 98.8083C146.169 94.4742 149.927 91.8014 151.82 92.2435C154.134 92.7828 154.359 94.923 153.682 96.4135C152.875 98.1786 147.308 102.958 146.565 107.781Z" fill="#4EBFA0"/>
<path opacity="0.1" d="M146.565 107.781L144.806 106.984C144.28 104.275 144.36 101.483 145.041 98.8083C146.169 94.4742 149.927 91.8014 151.82 92.2435C154.134 92.7828 154.359 94.923 153.682 96.4135C152.875 98.1786 147.308 102.958 146.565 107.781Z" fill="#333930"/>
<path d="M145.651 107.503C145.688 107.499 145.723 107.48 145.746 107.451C145.77 107.421 145.782 107.383 145.778 107.346C144.987 99.6959 151.663 93.8144 151.733 93.7575C151.758 93.7302 151.773 93.6943 151.773 93.657C151.773 93.6197 151.758 93.5838 151.733 93.5565C151.72 93.5431 151.704 93.5325 151.687 93.5253C151.67 93.518 151.651 93.5143 151.632 93.5143C151.614 93.5143 151.595 93.518 151.578 93.5253C151.561 93.5325 151.545 93.5431 151.532 93.5565C151.462 93.6168 144.679 99.5853 145.48 107.389C145.488 107.427 145.51 107.46 145.542 107.481C145.574 107.502 145.613 107.51 145.651 107.503V107.503Z" fill="white"/>
<path d="M11.1976 103.896L13.5086 102.576C13.5086 102.576 14.6139 96.4773 13.7866 91.2322C12.6211 83.8636 7.60037 81.3147 5.77832 82.0482C3.95627 82.7817 3.52755 84.9655 6.81997 89.2259C8.76259 91.7379 11.2612 97.0534 11.1976 103.896Z" fill="#4EBFA0"/>
<g opacity="0.15">
<path opacity="0.15" d="M11.1976 103.896L13.5086 102.576C13.5086 102.576 14.6139 96.4773 13.7866 91.2322C12.6211 83.8636 7.60037 81.3147 5.77832 82.0482C3.95627 82.7817 3.52755 84.9655 6.81997 89.2259C8.76259 91.7379 11.2612 97.0534 11.1976 103.896Z" fill="#333930"/>
</g>
<path d="M12.0344 100.969H12.011C11.9898 100.966 11.9694 100.959 11.9509 100.948C11.9325 100.937 11.9164 100.923 11.9036 100.905C11.8908 100.888 11.8816 100.869 11.8764 100.848C11.8713 100.827 11.8704 100.806 11.8737 100.784C12.8249 93.8814 10.0516 86.3185 6.93002 83.2706C6.91064 83.2565 6.89452 83.2384 6.88275 83.2175C6.87098 83.1966 6.86384 83.1734 6.86181 83.1495C6.85978 83.1256 6.8629 83.1015 6.87097 83.079C6.87904 83.0564 6.89186 83.0358 6.90858 83.0186C6.92529 83.0014 6.94551 82.988 6.96785 82.9793C6.9902 82.9706 7.01415 82.9668 7.0381 82.9681C7.06204 82.9694 7.08542 82.9759 7.10665 82.9871C7.12787 82.9983 7.14645 83.0139 7.16113 83.0328C10.3363 86.1209 13.1665 93.8245 12.2019 100.825C12.1962 100.865 12.1761 100.902 12.1453 100.928C12.1145 100.955 12.0751 100.969 12.0344 100.969Z" fill="white"/>
<path d="M4.79333 107.597C4.42825 107.805 3.67799 107.349 3.38994 107.155C2.89587 106.814 2.49697 106.353 2.23107 105.815C1.93412 105.208 1.83346 104.523 1.94302 103.856C2.001 103.503 2.08383 103.155 2.19087 102.814L2.48227 101.809C2.59707 101.487 2.64715 101.146 2.62964 100.804C2.54256 100.111 1.92627 99.6289 1.37028 99.2102C0.750649 98.748 0.110922 98.1384 0.114271 97.3044C0.157487 96.6583 0.415702 96.0451 0.847781 95.5628C1.24301 95.057 1.71527 94.6115 2.077 94.079C2.36053 93.7052 2.50608 93.2449 2.48897 92.7761C2.4506 92.4908 2.3549 92.2162 2.20762 91.9689C1.86879 91.4538 1.57304 90.9116 1.32339 90.3478C1.11908 89.765 1.14922 89.0416 1.60474 88.6229C1.80745 88.4714 2.03838 88.362 2.28399 88.301C2.52959 88.24 2.78489 88.2288 3.03491 88.2679C3.5105 88.3239 3.9679 88.484 4.37466 88.7368C5.69765 89.4703 6.45126 91.0378 7.85464 91.6038C8.41027 91.7769 8.97633 91.9145 9.54942 92.0158C9.83706 92.0691 10.1103 92.1822 10.3515 92.3478C10.5926 92.5134 10.7964 92.7278 10.9494 92.977C11.4652 94.0053 10.5107 95.2714 10.8724 96.3632C11.2073 97.3279 12.1318 97.703 12.6576 98.5705C12.8732 98.954 12.9601 99.3966 12.9055 99.8332C12.8587 100.572 12.6783 101.296 12.3729 101.97C12.0294 102.64 11.6364 103.284 11.1973 103.896C11.1772 103.919 4.85027 107.557 4.79333 107.597Z" fill="#4EBFA0"/>
<path d="M8.54093 105.601C8.51893 105.6 8.49732 105.595 8.47733 105.585C8.45734 105.576 8.43936 105.563 8.42443 105.547C8.4095 105.531 8.3979 105.512 8.39031 105.491C8.38271 105.471 8.37926 105.449 8.38016 105.427C8.65146 98.8953 5.5734 91.6942 3.33603 89.5841C3.30555 89.5534 3.28845 89.5118 3.28845 89.4685C3.28845 89.4253 3.30555 89.3837 3.33603 89.353C3.36733 89.3223 3.40942 89.3051 3.45325 89.3051C3.49709 89.3051 3.53918 89.3223 3.57048 89.353C5.838 91.4798 8.98304 98.8149 8.70505 105.443C8.70332 105.486 8.68526 105.526 8.65467 105.555C8.62408 105.584 8.58332 105.601 8.54093 105.601Z" fill="white"/>
<path d="M7.56313 97.8805H7.51289C5.96534 97.4549 4.37634 97.1977 2.77355 97.1135C2.72913 97.1135 2.68654 97.0959 2.65513 97.0644C2.62372 97.033 2.60608 96.9904 2.60608 96.946C2.60608 96.9016 2.62372 96.859 2.65513 96.8276C2.68654 96.7962 2.72913 96.7786 2.77355 96.7786C4.40475 96.8633 6.02192 97.125 7.59662 97.559C7.6173 97.5651 7.63657 97.5753 7.65333 97.5889C7.67008 97.6025 7.68398 97.6192 7.69425 97.6382C7.70452 97.6572 7.71094 97.678 7.71315 97.6995C7.71537 97.7209 7.71333 97.7426 7.70715 97.7633C7.69739 97.7948 7.6785 97.8228 7.65288 97.8437C7.62725 97.8645 7.59602 97.8773 7.56313 97.8805Z" fill="white"/>
<path d="M127.028 112.166L123.906 111.807L123.099 105.517L126.914 106.649L127.028 112.166Z" fill="#B16668"/>
<path d="M120.188 117.297C120.143 117.421 120.125 117.553 120.134 117.684C120.143 117.816 120.18 117.944 120.242 118.061C120.577 118.449 121.441 118.905 122.62 118.988C123.749 119.069 124.754 118.918 125.413 118.499C125.7 118.351 125.946 118.134 126.128 117.867C126.311 117.601 126.424 117.293 126.458 116.972C126.522 116.332 126.458 115.713 126.756 115.22C127.055 114.728 127.487 114.249 127.584 114.001C127.7 113.574 127.7 113.123 127.584 112.695L120.188 117.297Z" fill="#263238"/>
<path d="M123.273 111.697C123.263 111.94 123.219 112.18 123.142 112.41C122.969 112.906 122.738 113.38 122.452 113.82C122.312 114.054 122.155 114.278 121.983 114.49C121.648 114.895 121.22 115.23 120.858 115.619C120.474 115.985 120.228 116.473 120.161 116.999C120.114 117.883 121.521 118.185 122.261 118.315C123.06 118.455 123.879 118.413 124.659 118.195C125.069 118.088 125.439 117.865 125.726 117.553C126.012 117.241 126.202 116.854 126.274 116.436C126.317 116.188 126.301 115.937 126.331 115.693C126.428 115.128 126.664 114.596 127.017 114.145C127.222 113.885 127.399 113.603 127.543 113.305C127.774 112.759 127.59 112.142 127.443 111.6C127.315 111.127 127.161 110.595 126.994 110.632C126.994 110.876 126.994 110.91 126.83 111.074C126.666 111.238 126.602 111.6 126.368 111.784C126.442 111.58 126.497 111.369 126.532 111.154C126.546 111.068 126.528 110.98 126.481 110.906C126.404 110.837 126.311 110.786 126.21 110.759C125.862 110.642 125.503 110.561 125.138 110.514C124.641 110.458 124.139 110.458 123.641 110.514C123.538 110.533 123.444 110.588 123.377 110.669C123.316 110.758 123.284 110.862 123.283 110.97C123.266 111.097 123.279 111.462 123.273 111.697Z" fill="#455A64"/>
<path d="M122.332 114.008C122.667 113.76 123.849 113.756 124.251 113.8C124.661 113.835 125.055 113.973 125.397 114.202C125.447 114.238 125.508 114.254 125.569 114.249C125.63 114.245 125.688 114.218 125.732 114.175C125.757 114.15 125.777 114.12 125.789 114.086C125.802 114.053 125.807 114.017 125.804 113.981C125.802 113.946 125.792 113.911 125.774 113.88C125.757 113.848 125.734 113.821 125.705 113.8C125.329 113.523 124.884 113.357 124.419 113.321C123.838 113.278 123.255 113.312 122.684 113.421C122.684 113.421 122.235 113.713 122.332 114.008Z" fill="#F5F5F5"/>
<path d="M121.575 114.925C121.99 114.681 123.25 114.714 123.655 114.758C124.057 114.799 124.44 114.946 124.767 115.183C124.817 115.218 124.878 115.235 124.939 115.23C125 115.225 125.058 115.199 125.102 115.157C125.127 115.131 125.147 115.101 125.159 115.068C125.172 115.034 125.177 114.999 125.175 114.963C125.172 114.927 125.162 114.893 125.145 114.861C125.127 114.83 125.104 114.803 125.075 114.781C124.526 114.497 123.926 114.322 123.31 114.266C122.305 114.195 122.061 114.396 122.061 114.396C121.945 114.443 121.842 114.514 121.758 114.606C121.674 114.697 121.611 114.807 121.575 114.925Z" fill="#F5F5F5"/>
<path d="M124.814 112.373C124.247 112.308 123.673 112.343 123.119 112.477C122.945 112.574 122.828 112.852 122.941 112.922C123.447 112.786 123.972 112.734 124.495 112.768C124.867 112.805 125.229 112.905 125.567 113.063C125.654 113.103 125.755 113.153 125.842 113.204C125.87 113.221 125.901 113.233 125.934 113.238C125.967 113.242 126.001 113.24 126.032 113.23C126.064 113.22 126.094 113.204 126.118 113.182C126.143 113.16 126.163 113.133 126.177 113.103C126.201 113.054 126.205 112.997 126.19 112.945C126.174 112.892 126.14 112.847 126.093 112.818C125.703 112.58 125.267 112.428 124.814 112.373Z" fill="#F5F5F5"/>
<path d="M115.389 109.305L112.422 108.478V102.479L116.103 102.64L115.389 109.305Z" fill="#B16668"/>
<path d="M106.151 112.517C106.067 112.776 106.083 113.056 106.194 113.304C106.305 113.532 107.507 114.212 109.129 114.101C110.329 114.015 111.485 113.611 112.478 112.929C113.094 112.52 113.737 112.443 114.541 112.4C115.345 112.356 116.397 111.951 116.574 111.576C116.665 111.24 116.655 110.885 116.547 110.554L106.151 112.517Z" fill="#263238"/>
<path d="M112.682 107.46L112.555 107.433C112.485 107.416 112.411 107.416 112.341 107.433C112.263 107.459 112.193 107.505 112.14 107.567C111.982 107.771 111.844 107.99 111.728 108.22C111.393 108.773 110.673 109.225 109.896 109.65C109.366 109.935 108.847 110.156 108.301 110.401C107.755 110.645 107.002 110.806 106.566 111.101C105.93 111.529 105.846 112.605 106.566 113.03C107.189 113.398 108.837 113.797 110.562 113.308C111.5 113.04 112.545 112.038 113.778 111.941C114.561 111.878 116.045 111.66 116.551 111.064C116.738 110.799 116.487 109.962 116.283 109.238C116.059 108.448 115.848 107.229 115.586 107.286C115.589 107.342 115.577 107.398 115.553 107.45C115.529 107.501 115.494 107.546 115.449 107.58C115.352 107.681 115.221 107.745 115.114 107.835C114.931 108.015 114.783 108.227 114.679 108.461C114.636 108.566 114.558 108.651 114.458 108.703C114.324 108.749 114.226 108.669 114.123 108.615C113.975 108.548 113.809 108.536 113.654 108.582C113.67 108.425 113.698 108.269 113.737 108.116C113.752 108.068 113.752 108.017 113.737 107.969C113.718 107.92 113.683 107.88 113.637 107.855C113.35 107.658 113.025 107.523 112.682 107.46Z" fill="#455A64"/>
<path d="M110.639 109.211C110.695 109.103 110.778 109.011 110.879 108.943C110.98 108.875 111.097 108.834 111.219 108.823C111.574 108.756 112.203 109.021 112.595 109.342C112.633 109.372 112.662 109.411 112.681 109.454C112.7 109.498 112.708 109.546 112.704 109.594C112.7 109.642 112.684 109.688 112.658 109.728C112.632 109.768 112.597 109.801 112.555 109.824C112.502 109.854 112.442 109.867 112.382 109.86C112.322 109.853 112.265 109.828 112.22 109.788C111.788 109.398 111.221 109.191 110.639 109.211Z" fill="#F5F5F5"/>
<path d="M109.531 109.831C109.609 109.722 109.711 109.632 109.831 109.57C109.95 109.508 110.083 109.476 110.218 109.476C110.768 109.5 111.297 109.699 111.728 110.042C111.763 110.072 111.791 110.109 111.809 110.152C111.826 110.194 111.833 110.24 111.83 110.286C111.826 110.331 111.811 110.375 111.786 110.414C111.761 110.453 111.728 110.485 111.688 110.508C111.636 110.539 111.575 110.553 111.514 110.546C111.454 110.539 111.397 110.513 111.353 110.471C111.116 110.236 110.829 110.056 110.514 109.945C110.199 109.835 109.863 109.796 109.531 109.831Z" fill="#F5F5F5"/>
<path d="M108.328 110.387C108.417 110.286 108.526 110.205 108.648 110.15C108.771 110.095 108.904 110.068 109.038 110.069C109.568 110.102 110.075 110.301 110.485 110.638C110.52 110.668 110.548 110.706 110.566 110.748C110.583 110.791 110.59 110.837 110.586 110.883C110.583 110.929 110.568 110.974 110.543 111.013C110.518 111.052 110.485 111.084 110.445 111.107C110.393 111.139 110.332 111.152 110.271 111.145C110.211 111.139 110.154 111.112 110.11 111.07C109.886 110.826 109.609 110.638 109.299 110.519C108.99 110.401 108.658 110.355 108.328 110.387Z" fill="#F5F5F5"/>
<path d="M126.345 70.1681C126.549 76.3544 126.563 89.7518 126.563 89.7518C126.626 90.5222 126.693 91.8887 126.75 94.662C126.834 98.6812 127.028 108.605 127.028 108.605C127.028 108.605 125.109 109.506 123.344 108.773C123.344 108.773 120.892 94.8194 120.39 90.8403C119.951 87.3671 119.11 79.2214 119.11 79.2214L117.951 89.5609C117.951 89.5609 117.951 92.2404 117.794 94.605C117.663 96.4472 115.875 105.936 115.875 105.936C114.707 106.246 113.473 106.205 112.328 105.819C112.328 105.819 112.167 91.2523 112.134 89.5609C112.097 87.6384 112.592 66.8522 112.592 66.8522L126.345 70.1681Z" fill="#455A64"/>
<path d="M119.117 79.2213L118.674 75.7145C117.247 75.3495 115.897 74.73 114.689 73.8857C114.689 73.8857 115.539 75.0245 118.038 76.2303L118.601 79.4122L117.964 89.5607L119.117 79.2213Z" fill="#37474F"/>
<path d="M112.435 52.8083C111.531 53.994 106.879 60.3779 106.879 60.3779L102.581 57.0486C101.577 56.2615 101.279 55.2299 100.649 54.5165C100.019 53.8031 99.3292 53.6323 98.6225 53.0361C97.9158 52.4399 97.6445 51.9877 97.4034 52.4968C97.1622 53.0059 97.9426 53.8935 98.0732 54.1079C98.2039 54.3222 99.0111 54.8347 97.946 54.7777C96.8809 54.7208 94.8311 53.505 94.3354 53.2806C93.8396 53.0562 93.8262 53.6691 94.0607 54.071C94.2952 54.473 94.1779 55.5916 94.4526 56.3118C94.7272 57.0319 95.2095 57.474 96.1909 57.9596C97.1053 58.4151 99.3292 58.6998 100.053 59.1554C101.64 60.7831 104.635 63.821 105.392 64.3837C106.433 65.1574 107.441 65.8708 109.036 64.3368C110.63 62.8028 115.249 56.784 115.249 56.784L116.203 51.06C114.636 51.003 113.527 51.3781 112.435 52.8083Z" fill="#B16668"/>
<path d="M106.878 60.3778C107.467 60.8132 108.08 61.7912 108.137 62.23C108.13 61.8142 108.037 61.4044 107.864 61.0263C107.691 60.6482 107.442 60.3099 107.132 60.0328L106.878 60.3778Z" fill="#9A4A4D"/>
<path d="M116.572 50.9193C116.572 50.9193 114.361 50.8925 113.39 51.5725C112.418 52.2524 111.698 53.2471 110.121 55.5414C108.738 57.5511 108.068 58.5157 108.068 58.5157C108.973 59.8551 110.292 60.8619 111.822 61.3827L115.949 56.2716L116.572 50.9193Z" fill="#37474F"/>
<path d="M120.848 50.812C122.101 50.9326 123.863 50.946 125.102 51.0733C125.963 51.4283 127.624 52.8752 127.5 53.9068C127.038 57.762 126.104 64.0822 126.104 64.0822L126.412 70.7809C124.687 72.5025 116.615 73.1757 112.455 70.4225C112.455 70.4225 112.589 58.3916 112.877 56.3552C113.389 52.7078 113.838 51.3546 115.721 51.0331C117.603 50.7116 120.848 50.812 120.848 50.812Z" fill="#4EBFA0"/>
<path d="M127.942 52.9055C128.847 54.0912 133.502 60.475 133.502 60.475L137.803 57.1458C138.808 56.3553 139.106 55.3237 139.735 54.6137C140.365 53.9036 141.055 53.7294 141.762 53.1332C142.469 52.5371 142.74 52.0849 142.981 52.5907C143.222 53.0964 142.442 53.9907 142.311 54.205C142.18 54.4194 141.373 54.9319 142.438 54.8749C143.503 54.818 145.55 53.5988 146.049 53.3744C146.548 53.15 146.555 53.7629 146.324 54.1649C146.093 54.5668 146.203 55.6888 145.932 56.4089C145.66 57.129 145.175 57.5678 144.193 58.0568C143.279 58.5123 141.055 58.797 140.332 59.2525C138.744 60.877 135.75 63.9182 134.993 64.4775C133.951 65.2512 132.943 65.9646 131.349 64.434C129.754 62.9033 126.11 58.1372 126.11 58.1372L124.181 51.1571C125.745 51.1002 126.854 51.4753 127.942 52.9055Z" fill="#B16668"/>
<path d="M133.502 60.4751C132.913 60.9105 132.3 61.8885 132.243 62.3273C132.249 61.911 132.342 61.5006 132.515 61.1218C132.688 60.7431 132.937 60.4043 133.247 60.1268L133.502 60.4751Z" fill="#9A4A4D"/>
<path d="M123.96 50.9896C123.96 50.9896 125.946 50.8657 126.991 51.6595C127.932 52.383 128.666 53.3342 130.26 55.6285C131.643 57.6381 132.313 58.6027 132.313 58.6027C131.406 59.9417 130.086 60.9483 128.555 61.4698L125.745 58.0065C124.281 56.151 122.831 53.3275 123.96 50.9896Z" fill="#37474F"/>
<path d="M121.159 41.742C121.166 42.5104 120.945 43.2635 120.523 43.906C120.102 44.5486 119.499 45.0518 118.792 45.3519C118.085 45.6521 117.304 45.7357 116.549 45.5923C115.794 45.4489 115.099 45.0848 114.551 44.5462C114.003 44.0076 113.627 43.3185 113.47 42.5662C113.314 41.8138 113.384 41.032 113.672 40.3196C113.96 39.6071 114.453 38.9961 115.088 38.5636C115.723 38.1312 116.472 37.8969 117.241 37.8902C117.751 37.8858 118.257 37.9819 118.73 38.1731C119.203 38.3643 119.634 38.6468 119.998 39.0045C120.362 39.3621 120.652 39.788 120.851 40.2577C121.05 40.7274 121.155 41.2318 121.159 41.742Z" fill="#263238"/>
<path d="M124.017 44.4818C124.017 44.4818 123.411 47.4459 123.163 47.9316C122.998 48.2332 122.723 48.4598 122.396 48.5646L122.419 46.4813L124.017 44.4818Z" fill="#263238"/>
<path d="M123.189 40.2516C123.409 40.2234 123.632 40.2459 123.842 40.3173C124.051 40.3887 124.242 40.5072 124.399 40.6636C124.921 41.1894 124.646 42.8507 124.017 44.4818L122.831 44.6292L123.189 40.2516Z" fill="#263238"/>
<path d="M122.476 44.6324C122.714 44.7731 123.049 44.2975 123.34 44.0027C123.631 43.708 124.583 43.2659 125.072 44.2673C125.561 45.2688 124.67 46.6521 123.919 46.8932C122.623 47.3152 122.419 46.4812 122.419 46.4812L122.365 51.311C120.771 53.3977 116.286 53.2603 118.135 51.0833V49.6564C117.558 49.7533 116.972 49.7881 116.387 49.7603C115.429 49.6229 114.823 48.8727 114.521 47.8411C114.042 46.1865 113.851 44.8468 114.22 41.5744C114.622 37.9906 118.785 37.9169 121.046 39.3136C123.307 40.7103 122.476 44.6324 122.476 44.6324Z" fill="#B16668"/>
<path d="M122.48 45.0311C122.597 45.0311 123.046 44.2741 123.341 44.0028C123.746 43.6244 123.19 40.2515 123.19 40.2515C123.329 39.9523 123.375 39.618 123.321 39.2923C123.267 38.9667 123.116 38.6648 122.889 38.4262C122.322 37.8132 121.532 37.0663 118.987 37.3878C117.168 37.619 115.195 38.2051 113.591 37.4347C113.448 37.957 113.464 38.51 113.637 39.0231C113.81 39.5362 114.132 39.986 114.562 40.3152C114.562 40.3152 115.145 40.6836 116.669 40.8544C118.074 40.9469 119.484 40.9076 120.882 40.7372C121.324 40.6736 121.421 41.0989 121.669 42.2679C121.887 43.2894 122.078 45.0277 122.48 45.0311Z" fill="#263238"/>
<path d="M123.19 40.5127L124.62 39.729C124.573 39.6322 124.508 39.5459 124.427 39.4753C124.346 39.4047 124.252 39.3514 124.149 39.3185C124.047 39.2856 123.94 39.2738 123.833 39.2839C123.726 39.294 123.622 39.3258 123.528 39.3773C123.336 39.4867 123.194 39.6657 123.131 39.8772C123.068 40.0887 123.089 40.3163 123.19 40.5127Z" fill="#263238"/>
<path d="M118.125 49.6565C118.125 49.6565 120.255 49.2076 120.996 48.8057C121.432 48.5738 121.788 48.2153 122.017 47.7775C121.909 48.2137 121.714 48.6238 121.444 48.9832C120.905 49.6866 118.132 50.2225 118.132 50.2225L118.125 49.6565Z" fill="#9A4A4D"/>
<path d="M117.955 44.2908C117.954 44.3478 117.965 44.4044 117.986 44.4574C118.007 44.5104 118.038 44.5587 118.078 44.5994C118.118 44.6402 118.165 44.6727 118.218 44.6951C118.27 44.7174 118.327 44.7291 118.384 44.7295C118.473 44.7329 118.561 44.7095 118.636 44.6623C118.712 44.6151 118.772 44.5464 118.808 44.4649C118.844 44.3835 118.855 44.2931 118.839 44.2054C118.823 44.1177 118.781 44.0368 118.719 43.9731C118.657 43.9094 118.577 43.8658 118.49 43.8479C118.402 43.8301 118.312 43.8389 118.229 43.8731C118.147 43.9073 118.077 43.9654 118.028 44.0398C117.979 44.1143 117.954 44.2017 117.955 44.2908Z" fill="#263238"/>
<path d="M119.224 42.8206L118.273 42.3885C118.218 42.5186 118.215 42.665 118.265 42.7972C118.315 42.9295 118.414 43.0374 118.541 43.0986C118.604 43.1264 118.672 43.1414 118.741 43.1424C118.81 43.1435 118.878 43.1306 118.942 43.1047C119.006 43.0787 119.063 43.0402 119.112 42.9914C119.161 42.9426 119.199 42.8845 119.224 42.8206Z" fill="#263238"/>
<path d="M115.154 42.2947L114.327 42.9444C114.366 43.0008 114.416 43.0485 114.475 43.0845C114.533 43.1206 114.598 43.1442 114.666 43.1539C114.734 43.1637 114.803 43.1593 114.869 43.1411C114.935 43.123 114.997 43.0914 115.05 43.0483C115.16 42.9594 115.232 42.832 115.251 42.692C115.27 42.552 115.236 42.41 115.154 42.2947Z" fill="#263238"/>
<path d="M114.656 44.1869C114.66 44.2669 114.687 44.344 114.735 44.4085C114.782 44.4731 114.847 44.5223 114.922 44.5501C114.998 44.5778 115.079 44.5829 115.157 44.5647C115.235 44.5464 115.306 44.5057 115.361 44.4475C115.416 44.3893 115.453 44.3162 115.467 44.2373C115.48 44.1585 115.471 44.0773 115.439 44.0038C115.407 43.9304 115.354 43.868 115.287 43.8243C115.22 43.7806 115.141 43.7576 115.061 43.7582C115.006 43.7595 114.952 43.7716 114.902 43.7939C114.852 43.8162 114.807 43.8482 114.769 43.8881C114.732 43.9279 114.702 43.9749 114.683 44.0262C114.663 44.0775 114.654 44.1321 114.656 44.1869Z" fill="#263238"/>
<path d="M116.872 43.8422L116.631 46.4044L115.308 45.8953L116.872 43.8422Z" fill="#9A4A4D"/>
<path d="M117.6 47.3656C117.599 47.4472 117.623 47.5272 117.668 47.5954C117.713 47.6636 117.777 47.7169 117.852 47.7486C117.927 47.7803 118.01 47.7889 118.09 47.7734C118.171 47.7579 118.244 47.7189 118.302 47.6614C118.36 47.6039 118.4 47.5305 118.416 47.4505C118.432 47.3705 118.424 47.2875 118.393 47.2121C118.362 47.1366 118.309 47.0721 118.241 47.0266C118.173 46.9812 118.094 46.957 118.012 46.957C117.903 46.957 117.799 46.9999 117.722 47.0764C117.645 47.153 117.601 47.2569 117.6 47.3656Z" fill="#9A4A4D"/>
<path d="M128.057 20.0784C128.695 20.2206 129.311 20.4518 129.886 20.765C130.435 21.0607 130.927 21.452 131.339 21.9205C131.736 22.3745 132.028 22.9094 132.197 23.488C132.373 24.1014 132.387 24.75 132.237 25.3704C132.138 25.8628 131.942 26.3307 131.661 26.747C131.408 27.1051 131.105 27.4245 130.76 27.6948C130.422 27.9568 130.062 28.1888 129.685 28.3882L128.619 28.9508C128.298 29.1186 127.993 29.316 127.708 29.5403C127.451 29.7355 127.254 29.9989 127.139 30.3006C127.081 30.4352 126.987 30.5511 126.868 30.6356C126.81 30.6794 126.744 30.7098 126.673 30.7243C126.602 30.7388 126.529 30.7371 126.459 30.7193L124.892 30.3844C124.816 30.3685 124.745 30.3378 124.682 30.2941C124.619 30.2504 124.565 30.1946 124.523 30.1298C124.479 30.0692 124.45 29.9991 124.439 29.9252C124.427 29.8512 124.433 29.7756 124.456 29.7045C124.587 29.2172 124.815 28.7615 125.126 28.3647C125.407 28.0145 125.731 27.7016 126.091 27.4336C126.438 27.1793 126.807 26.9552 127.193 26.7637C127.574 26.5728 127.929 26.3886 128.258 26.2077C128.558 26.0492 128.84 25.8582 129.098 25.6383C129.324 25.4484 129.481 25.1894 129.544 24.9015C129.602 24.65 129.598 24.3882 129.533 24.1386C129.467 23.8889 129.342 23.6588 129.169 23.4679C128.736 22.9947 128.157 22.6799 127.524 22.5737C126.354 22.3124 125.365 22.7065 124.557 23.756C124.479 23.8709 124.38 23.9698 124.265 24.0474C124.203 24.079 124.135 24.098 124.066 24.1032C123.996 24.1084 123.926 24.0996 123.86 24.0775L122.185 23.7058C122.126 23.6944 122.07 23.6713 122.02 23.638C121.97 23.6046 121.927 23.5616 121.894 23.5115C121.857 23.4602 121.833 23.4014 121.822 23.3395C121.811 23.2775 121.814 23.2138 121.83 23.1531C121.971 22.6383 122.236 22.1658 122.601 21.7765C123.01 21.3242 123.497 20.9477 124.038 20.6645C124.63 20.3535 125.269 20.1408 125.93 20.0349C126.635 19.9108 127.357 19.9256 128.057 20.0784V20.0784ZM126.288 31.982C126.362 31.9977 126.431 32.0284 126.492 32.0722C126.553 32.116 126.605 32.172 126.643 32.2366C126.685 32.2991 126.713 32.3693 126.726 32.443C126.739 32.5167 126.737 32.5923 126.72 32.6653L126.318 34.4806C126.285 34.6256 126.196 34.7517 126.071 34.8323C125.946 34.913 125.794 34.9418 125.649 34.9127L123.873 34.5208C123.8 34.5052 123.731 34.4748 123.67 34.4316C123.609 34.3884 123.558 34.3333 123.518 34.2696C123.477 34.2074 123.448 34.1371 123.435 34.0633C123.422 33.9896 123.424 33.9138 123.441 33.8409L123.843 32.0222C123.877 31.8773 123.966 31.7512 124.091 31.6705C124.216 31.5899 124.367 31.5611 124.513 31.5901L126.288 31.982Z" fill="#4EBFA0"/>
<path d="M133.321 37.1566C133.764 37.0836 134.215 37.0746 134.661 37.1298C135.089 37.1785 135.506 37.3032 135.89 37.4983C136.257 37.6861 136.579 37.9512 136.835 38.2753C137.105 38.6227 137.279 39.035 137.34 39.471C137.41 39.8103 137.41 40.16 137.34 40.4993C137.271 40.7944 137.158 41.0777 137.005 41.34C136.856 41.5928 136.686 41.8325 136.496 42.0567L135.957 42.6931C135.795 42.8835 135.649 43.0874 135.522 43.3027C135.408 43.4941 135.35 43.7133 135.354 43.9357C135.354 44.0402 135.323 44.1424 135.267 44.2305C135.241 44.2726 135.207 44.3085 135.166 44.3357C135.125 44.363 135.078 44.3808 135.029 44.3879L133.934 44.5687C133.828 44.5854 133.72 44.5601 133.633 44.4984C133.59 44.4703 133.554 44.4328 133.528 44.3887C133.501 44.3445 133.486 44.295 133.482 44.2439C133.436 43.9006 133.462 43.5515 133.559 43.219C133.646 42.9205 133.773 42.6354 133.937 42.3716C134.094 42.119 134.272 41.8803 134.47 41.6582C134.668 41.4371 134.845 41.2294 135.013 41.0285C135.163 40.8499 135.295 40.6556 135.404 40.449C135.5 40.2697 135.535 40.0636 135.502 39.8629C135.474 39.6865 135.405 39.5193 135.298 39.3757C135.192 39.2322 135.053 39.1166 134.892 39.039C134.495 38.8451 134.044 38.7908 133.612 38.8849C133.222 38.9425 132.859 39.119 132.572 39.3905C132.286 39.6621 132.09 40.0153 132.011 40.4021C131.99 40.4966 131.952 40.5863 131.898 40.6667C131.833 40.738 131.743 40.7812 131.646 40.7873L130.481 40.9782C130.398 40.9919 130.313 40.9739 130.243 40.928C130.206 40.9043 130.175 40.8728 130.152 40.8357C130.129 40.7987 130.114 40.757 130.109 40.7136C130.069 40.3478 130.118 39.9776 130.253 39.6351C130.398 39.2392 130.614 38.8727 130.889 38.5533C131.19 38.2027 131.545 37.903 131.941 37.6657C132.364 37.408 132.832 37.2351 133.321 37.1566V37.1566ZM135.234 45.2587C135.285 45.2501 135.337 45.2519 135.388 45.264C135.439 45.276 135.486 45.2982 135.528 45.329C135.57 45.3588 135.606 45.3967 135.633 45.4404C135.66 45.4841 135.678 45.5328 135.686 45.5836L135.893 46.8497C135.902 46.901 135.9 46.9535 135.888 47.0042C135.876 47.0548 135.854 47.1025 135.823 47.1444C135.794 47.1867 135.756 47.2225 135.712 47.2496C135.668 47.2767 135.619 47.2945 135.568 47.3018L134.329 47.5061C134.278 47.5145 134.226 47.5125 134.176 47.5005C134.126 47.4884 134.079 47.4664 134.038 47.4358C133.995 47.4068 133.958 47.3692 133.931 47.3254C133.903 47.2815 133.885 47.2325 133.877 47.1812L133.669 45.9118C133.654 45.8075 133.681 45.7013 133.743 45.6166C133.806 45.5318 133.9 45.4754 134.004 45.4597L135.234 45.2587Z" fill="#4EBFA0"/>
<g opacity="0.2">
<path opacity="0.2" d="M133.321 37.1566C133.764 37.0836 134.215 37.0746 134.661 37.1298C135.089 37.1785 135.506 37.3032 135.89 37.4983C136.257 37.6861 136.579 37.9512 136.835 38.2753C137.105 38.6227 137.279 39.035 137.34 39.471C137.41 39.8103 137.41 40.16 137.34 40.4993C137.271 40.7944 137.158 41.0777 137.005 41.34C136.856 41.5928 136.686 41.8325 136.496 42.0567L135.957 42.6931C135.795 42.8835 135.649 43.0874 135.522 43.3027C135.408 43.4941 135.35 43.7133 135.354 43.9357C135.354 44.0402 135.323 44.1424 135.267 44.2305C135.241 44.2726 135.207 44.3085 135.166 44.3357C135.125 44.363 135.078 44.3808 135.029 44.3879L133.934 44.5687C133.828 44.5854 133.72 44.5601 133.633 44.4984C133.59 44.4703 133.554 44.4328 133.528 44.3887C133.501 44.3445 133.486 44.295 133.482 44.2439C133.436 43.9006 133.462 43.5515 133.559 43.219C133.646 42.9205 133.773 42.6354 133.937 42.3716C134.094 42.119 134.272 41.8803 134.47 41.6582C134.668 41.4371 134.845 41.2294 135.013 41.0285C135.163 40.8499 135.295 40.6556 135.404 40.449C135.5 40.2697 135.535 40.0636 135.502 39.8629C135.474 39.6865 135.405 39.5193 135.298 39.3757C135.192 39.2322 135.053 39.1166 134.892 39.039C134.495 38.8451 134.044 38.7908 133.612 38.8849C133.222 38.9425 132.859 39.119 132.572 39.3905C132.286 39.6621 132.09 40.0153 132.011 40.4021C131.99 40.4966 131.952 40.5863 131.898 40.6667C131.833 40.738 131.743 40.7812 131.646 40.7873L130.481 40.9782C130.398 40.9919 130.313 40.9739 130.243 40.928C130.206 40.9043 130.175 40.8728 130.152 40.8357C130.129 40.7987 130.114 40.757 130.109 40.7136C130.069 40.3478 130.118 39.9776 130.253 39.6351C130.398 39.2392 130.614 38.8727 130.889 38.5533C131.19 38.2027 131.545 37.903 131.941 37.6657C132.364 37.408 132.832 37.2351 133.321 37.1566V37.1566ZM135.234 45.2587C135.285 45.2501 135.337 45.2519 135.388 45.264C135.439 45.276 135.486 45.2982 135.528 45.329C135.57 45.3588 135.606 45.3967 135.633 45.4404C135.66 45.4841 135.678 45.5328 135.686 45.5836L135.893 46.8497C135.902 46.901 135.9 46.9535 135.888 47.0042C135.876 47.0548 135.854 47.1025 135.823 47.1444C135.794 47.1867 135.756 47.2225 135.712 47.2496C135.668 47.2767 135.619 47.2945 135.568 47.3018L134.329 47.5061C134.278 47.5145 134.226 47.5125 134.176 47.5005C134.126 47.4884 134.079 47.4664 134.038 47.4358C133.995 47.4068 133.958 47.3692 133.931 47.3254C133.903 47.2815 133.885 47.2325 133.877 47.1812L133.669 45.9118C133.654 45.8075 133.681 45.7013 133.743 45.6166C133.806 45.5318 133.9 45.4754 134.004 45.4597L135.234 45.2587Z" fill="#333930"/>
</g>
<path d="M144.742 40.7506C144.842 40.8231 144.909 40.9316 144.93 41.053C144.95 41.1744 144.923 41.299 144.853 41.4003L143.969 42.6396C143.896 42.7391 143.788 42.8063 143.666 42.827C143.545 42.8476 143.42 42.82 143.319 42.7501L142.106 41.8893C142.056 41.8544 142.014 41.8096 141.982 41.7578C141.95 41.706 141.928 41.6482 141.919 41.5879C141.901 41.4705 141.929 41.3508 141.996 41.253L142.88 40.0104C142.952 39.9105 143.06 39.843 143.182 39.8228C143.299 39.8051 143.42 39.8339 143.517 39.9032L144.742 40.7506ZM149.86 32.347C150.297 32.6555 150.688 33.0255 151.019 33.4456C151.339 33.8454 151.585 34.2991 151.746 34.7854C151.899 35.2501 151.951 35.7425 151.897 36.2289C151.834 36.7469 151.638 37.2397 151.327 37.6591C151.096 37.9982 150.8 38.2885 150.456 38.5132C150.151 38.7028 149.819 38.8462 149.472 38.9386C149.135 39.0285 148.791 39.089 148.443 39.1194L147.459 39.2032C147.165 39.2301 146.873 39.2817 146.588 39.3572C146.332 39.4247 146.101 39.5615 145.918 39.7525C145.83 39.8379 145.722 39.8991 145.603 39.93C145.546 39.9436 145.486 39.9444 145.428 39.9322C145.37 39.9201 145.315 39.8953 145.268 39.8596L144.196 39.0993C144.094 39.0257 144.025 38.9152 144.002 38.7912C143.989 38.7327 143.99 38.672 144.005 38.6139C144.019 38.5558 144.047 38.5019 144.086 38.4563C144.335 38.1294 144.649 37.857 145.007 37.6558C145.329 37.4789 145.674 37.346 146.032 37.2605C146.375 37.1776 146.725 37.1238 147.077 37.0998C147.412 37.0797 147.747 37.0529 148.055 37.0227C148.332 36.9989 148.605 36.9438 148.869 36.8586C149.099 36.7885 149.3 36.6435 149.438 36.4466C149.563 36.2761 149.644 36.0777 149.674 35.8687C149.704 35.6597 149.683 35.4465 149.612 35.2476C149.438 34.754 149.103 34.333 148.661 34.0518C147.864 33.4825 146.993 33.4635 146.049 33.9949C145.953 34.0558 145.848 34.0989 145.737 34.1222C145.68 34.1263 145.622 34.1189 145.567 34.1005C145.513 34.0821 145.462 34.053 145.419 34.015L144.28 33.2045C144.197 33.1481 144.14 33.0616 144.119 32.9633C144.11 32.9131 144.111 32.8613 144.123 32.8116C144.135 32.7619 144.158 32.7154 144.19 32.6753C144.455 32.3327 144.8 32.0602 145.195 31.8815C145.648 31.6719 146.134 31.5438 146.631 31.503C147.176 31.4586 147.725 31.5015 148.256 31.6303C148.833 31.7605 149.378 32.0041 149.86 32.347V32.347Z" fill="#4EBFA0"/>
<g opacity="0.6">
<path opacity="0.6" d="M144.742 40.7506C144.842 40.8231 144.909 40.9316 144.93 41.053C144.95 41.1744 144.923 41.299 144.853 41.4003L143.969 42.6396C143.896 42.7391 143.788 42.8063 143.666 42.827C143.545 42.8476 143.42 42.82 143.319 42.7501L142.106 41.8893C142.056 41.8544 142.014 41.8096 141.982 41.7578C141.95 41.706 141.928 41.6482 141.919 41.5879C141.901 41.4705 141.929 41.3508 141.996 41.253L142.88 40.0104C142.952 39.9105 143.06 39.843 143.182 39.8228C143.299 39.8051 143.42 39.8339 143.517 39.9032L144.742 40.7506ZM149.86 32.347C150.297 32.6555 150.688 33.0255 151.019 33.4456C151.339 33.8454 151.585 34.2991 151.746 34.7854C151.899 35.2501 151.951 35.7425 151.897 36.2289C151.834 36.7469 151.638 37.2397 151.327 37.6591C151.096 37.9982 150.8 38.2885 150.456 38.5132C150.151 38.7028 149.819 38.8462 149.472 38.9386C149.135 39.0285 148.791 39.089 148.443 39.1194L147.459 39.2032C147.165 39.2301 146.873 39.2817 146.588 39.3572C146.332 39.4247 146.101 39.5615 145.918 39.7525C145.83 39.8379 145.722 39.8991 145.603 39.93C145.546 39.9436 145.486 39.9444 145.428 39.9322C145.37 39.9201 145.315 39.8953 145.268 39.8596L144.196 39.0993C144.094 39.0257 144.025 38.9152 144.002 38.7912C143.989 38.7327 143.99 38.672 144.005 38.6139C144.019 38.5558 144.047 38.5019 144.086 38.4563C144.335 38.1294 144.649 37.857 145.007 37.6558C145.329 37.4789 145.674 37.346 146.032 37.2605C146.375 37.1776 146.725 37.1238 147.077 37.0998C147.412 37.0797 147.747 37.0529 148.055 37.0227C148.332 36.9989 148.605 36.9438 148.869 36.8586C149.099 36.7885 149.3 36.6435 149.438 36.4466C149.563 36.2761 149.644 36.0777 149.674 35.8687C149.704 35.6597 149.683 35.4465 149.612 35.2476C149.438 34.754 149.103 34.333 148.661 34.0518C147.864 33.4825 146.993 33.4635 146.049 33.9949C145.953 34.0558 145.848 34.0989 145.737 34.1222C145.68 34.1263 145.622 34.1189 145.567 34.1005C145.513 34.0821 145.462 34.053 145.419 34.015L144.28 33.2045C144.197 33.1481 144.14 33.0616 144.119 32.9633C144.11 32.9131 144.111 32.8613 144.123 32.8116C144.135 32.7619 144.158 32.7154 144.19 32.6753C144.455 32.3327 144.8 32.0602 145.195 31.8815C145.648 31.6719 146.134 31.5438 146.631 31.503C147.176 31.4586 147.725 31.5015 148.256 31.6303C148.833 31.7605 149.378 32.0041 149.86 32.347V32.347Z" fill="white"/>
</g>
<path d="M36.8132 107.061C36.7798 106.056 37.5032 96.236 37.5032 96.236L32.7203 99.7059C33.7017 105.561 33.9127 106.944 33.9295 107.902C33.9092 107.982 33.9002 108.064 33.9027 108.146C33.9027 109.285 35.1922 109.898 36.1936 110.658C37.0448 111.324 37.9513 111.916 38.9033 112.427C39.6301 112.792 41.1105 112.825 41.2913 112.356C40.0722 111.425 38.3004 110.032 37.3291 108.97C36.8668 108.461 36.8501 108.059 36.8132 107.061Z" fill="#FFA8A7"/>
<path d="M43.3713 113.586C43.4255 113.742 43.4351 113.91 43.399 114.072C43.363 114.233 43.2826 114.382 43.167 114.5C42.2886 115.134 41.1953 115.394 40.1258 115.224C38.6052 115.026 37.7812 114.594 37.175 114.085C36.5687 113.576 35.7147 112.859 35.0247 112.708C34.4762 112.604 33.9544 112.39 33.4907 112.079C33.2864 111.881 33.3132 111.003 33.3132 111.003L43.3713 113.586Z" fill="#263238"/>
<path d="M33.919 107.624C33.8627 107.625 33.8087 107.647 33.7665 107.684C33.7243 107.721 33.6965 107.772 33.6879 107.828C33.641 108.069 33.5908 108.773 33.4903 109.168C33.3348 109.867 33.2851 110.585 33.3429 111.298C33.4266 111.75 34.4649 112.062 35.1315 112.303C35.9153 112.644 36.6426 113.103 37.2884 113.663C38.2205 114.36 39.3329 114.775 40.4938 114.858C41.6661 114.858 42.9857 114.47 43.2905 113.927C43.6623 113.257 43.3709 112.866 41.6326 112.058C41.2976 111.908 40.1488 111.221 39.7536 110.973C38.6885 110.303 37.6334 109.369 37.1411 108.183C37.1014 108.038 37.0141 107.911 36.8932 107.821C36.7877 107.776 36.6707 107.764 36.5583 107.788C36.268 107.83 35.9857 107.916 35.7209 108.042C35.4898 108.153 35.1583 108.284 35.1616 108.582C35.1687 108.685 35.1913 108.787 35.2286 108.883C35.2487 108.947 35.2654 109.027 35.2286 109.064C35.1918 109.101 35.1114 109.064 35.0645 109.017C34.894 108.843 34.7383 108.655 34.5989 108.454C34.5166 108.352 34.4234 108.259 34.3209 108.176C34.2184 108.118 34.12 108.053 34.0262 107.982C33.8989 107.892 33.9257 107.764 33.919 107.624Z" fill="#455A64"/>
<path d="M37.2886 113.68C36.9838 113.432 36.6622 113.187 36.3407 112.973C36.3407 112.973 38.3838 114.215 39.2077 113.643C39.3607 113.546 39.4725 113.396 39.5219 113.222C39.5714 113.047 39.5549 112.861 39.4757 112.698C39.4757 112.558 40.7752 111.951 41.291 111.891C41.4351 111.971 41.5556 112.035 41.626 112.069C43.3643 112.876 43.6557 113.264 43.2839 113.937C42.9791 114.48 42.0246 114.905 40.5106 114.905C39.5259 114.926 37.9919 114.256 37.2886 113.68Z" fill="#37474F"/>
<path d="M39.3315 112.293C40.4133 112.725 39.9511 112.926 39.6497 112.963C39.3482 113 37.5295 111.958 36.4175 111.067C35.3056 110.176 34.5319 109.148 34.1031 108.813C33.9424 108.689 33.7682 108.535 33.6141 108.391C33.6443 108.153 33.6677 107.936 33.6878 107.822C33.6964 107.766 33.7242 107.715 33.7664 107.678C33.8087 107.64 33.8626 107.619 33.9189 107.617C33.9189 107.758 33.8988 107.889 34.006 107.992C34.0998 108.064 34.1983 108.129 34.3008 108.187C34.4032 108.269 34.4964 108.362 34.5787 108.465C34.7181 108.665 34.8739 108.853 35.0443 109.027C36.2496 110.382 37.7053 111.491 39.3315 112.293Z" fill="#263238"/>
<path d="M39.5733 112.812C39.5485 112.811 39.5249 112.801 39.5063 112.785C39.4954 112.777 39.4863 112.766 39.4796 112.754C39.4728 112.742 39.4685 112.729 39.467 112.715C39.4654 112.701 39.4666 112.687 39.4705 112.674C39.4744 112.661 39.4809 112.648 39.4896 112.638C39.7443 112.373 40.0528 112.166 40.3943 112.031C40.7358 111.896 41.1022 111.836 41.469 111.854C41.4978 111.857 41.5241 111.872 41.5422 111.894C41.5604 111.917 41.569 111.946 41.5662 111.975C41.5628 112.002 41.5486 112.028 41.5267 112.045C41.5048 112.063 41.4769 112.071 41.4489 112.068C41.1178 112.055 40.7874 112.11 40.4789 112.231C40.1703 112.352 39.8904 112.536 39.657 112.772C39.6468 112.784 39.634 112.794 39.6196 112.801C39.6051 112.808 39.5893 112.812 39.5733 112.812Z" fill="#F5F5F5"/>
<path d="M38.6319 112.246C38.6063 112.247 38.5813 112.239 38.5615 112.223C38.5425 112.202 38.5319 112.175 38.5319 112.147C38.5319 112.119 38.5425 112.092 38.5615 112.072C38.8168 111.808 39.1255 111.602 39.4669 111.468C39.8083 111.333 40.1745 111.273 40.541 111.292C40.5694 111.295 40.5955 111.309 40.6134 111.331C40.6313 111.354 40.6396 111.382 40.6365 111.41C40.6334 111.439 40.6191 111.465 40.5968 111.483C40.5745 111.501 40.546 111.509 40.5176 111.506C40.1863 111.491 39.8557 111.546 39.547 111.668C39.2384 111.789 38.9586 111.973 38.7257 112.209C38.7142 112.223 38.6997 112.233 38.6834 112.239C38.667 112.246 38.6493 112.248 38.6319 112.246Z" fill="#F5F5F5"/>
<path d="M37.6874 111.68C37.663 111.68 37.6393 111.672 37.6204 111.657C37.6006 111.637 37.5895 111.609 37.5895 111.581C37.5895 111.553 37.6006 111.526 37.6204 111.506C37.8759 111.242 38.1846 111.037 38.5259 110.902C38.8673 110.767 39.2334 110.707 39.5999 110.725C39.614 110.727 39.6277 110.731 39.6402 110.737C39.6528 110.744 39.6639 110.753 39.6729 110.764C39.6819 110.775 39.6887 110.787 39.6929 110.801C39.697 110.814 39.6984 110.829 39.697 110.843C39.6958 110.857 39.6917 110.871 39.6852 110.883C39.6786 110.896 39.6696 110.907 39.6587 110.916C39.6478 110.925 39.6352 110.932 39.6217 110.936C39.6081 110.94 39.5939 110.941 39.5798 110.94C39.2486 110.925 38.9179 110.98 38.6093 111.102C38.3006 111.223 38.0208 111.407 37.7879 111.643C37.7755 111.657 37.7598 111.668 37.7423 111.674C37.7247 111.681 37.7059 111.683 37.6874 111.68Z" fill="#F5F5F5"/>
<path d="M36.8133 111.054C36.7889 111.054 36.7652 111.046 36.7463 111.03C36.736 111.02 36.7279 111.009 36.7223 110.996C36.7167 110.983 36.7139 110.969 36.7139 110.955C36.7139 110.941 36.7167 110.927 36.7223 110.914C36.7279 110.901 36.736 110.889 36.7463 110.879C37.0013 110.615 37.31 110.409 37.6514 110.275C37.9929 110.14 38.3592 110.08 38.7257 110.099C38.7536 110.102 38.7791 110.117 38.7966 110.138C38.8141 110.16 38.8224 110.188 38.8195 110.216C38.8162 110.244 38.802 110.27 38.7801 110.287C38.7582 110.305 38.7302 110.313 38.7023 110.31C38.3712 110.297 38.041 110.353 37.7326 110.474C37.4241 110.595 37.1442 110.779 36.9104 111.013C36.899 111.028 36.8841 111.039 36.8671 111.046C36.8501 111.053 36.8315 111.056 36.8133 111.054Z" fill="#F5F5F5"/>
<path d="M35.9589 110.427C35.9348 110.426 35.9115 110.418 35.8919 110.404C35.8721 110.384 35.861 110.357 35.861 110.328C35.861 110.3 35.8721 110.273 35.8919 110.253C36.1681 109.965 36.5063 109.745 36.8807 109.608C37.2551 109.471 37.6558 109.421 38.0523 109.462C38.0664 109.463 38.0803 109.467 38.0929 109.473C38.1055 109.48 38.1166 109.489 38.1255 109.5C38.1343 109.511 38.1407 109.524 38.1443 109.538C38.1478 109.551 38.1484 109.566 38.1461 109.58C38.1427 109.608 38.1285 109.633 38.1066 109.651C38.0847 109.668 38.0568 109.676 38.0288 109.673C37.6684 109.638 37.3046 109.683 36.9639 109.806C36.6232 109.929 36.3142 110.126 36.0594 110.384C36.0477 110.399 36.0323 110.411 36.0147 110.418C35.9972 110.426 35.978 110.429 35.9589 110.427Z" fill="#F5F5F5"/>
<path d="M27.8035 100.707L22.9771 100.62C23.0474 103.842 23.5598 107.416 23.6469 110.437C23.6469 111.007 23.6469 114.858 23.8479 116.031C24.1828 117.789 26.2594 117.551 26.37 116.5C26.4805 115.448 26.236 110.95 26.2427 110.471C26.2226 108.535 27.1303 105.263 27.6092 101.783C27.6293 101.625 27.78 100.875 27.8035 100.707Z" fill="#FFA8A7"/>
<path d="M27.1534 117.23C27.243 118.036 27.1278 118.852 26.8184 119.601C26.6653 119.899 26.4181 120.138 26.1153 120.281C25.8125 120.424 25.471 120.463 25.1438 120.392C24.4303 120.288 23.4892 119.906 23.2011 119.052C22.9284 118.265 22.8323 117.428 22.9198 116.6L27.1534 117.23Z" fill="#263238"/>
<path d="M23.6336 110.069C23.3489 110.119 23.4025 111.509 23.3757 112.906C23.3455 114.406 22.967 115.063 22.9302 116.292C22.8866 117.699 23.024 118.302 23.6001 119.099C24.1762 119.896 25.9748 120.539 26.7016 119.253C27.2944 118.205 27.214 117.116 27.0097 115.736C26.8054 114.356 26.6446 113.311 26.591 112.219C26.5375 111.127 26.514 110.159 26.2561 110.069C26.2561 110.223 26.2561 110.421 26.2561 110.571C26.2561 110.722 26.2796 111.241 26.1188 111.275C26.094 111.145 26.0794 111.014 26.0752 110.883C26.0827 110.761 26.0431 110.641 25.9647 110.548C25.8678 110.476 25.7502 110.439 25.6298 110.441C25.3429 110.408 25.0544 110.393 24.7656 110.394C24.6216 110.394 24.4742 110.394 24.3336 110.417C24.2098 110.427 24.0886 110.457 23.9752 110.508C23.9418 110.522 23.9117 110.543 23.8869 110.57C23.8621 110.596 23.8432 110.628 23.8312 110.662C23.8211 110.715 23.8211 110.769 23.8312 110.823C23.8429 110.918 23.8429 111.015 23.8312 111.111C23.8312 111.154 23.801 111.208 23.7575 111.201C23.7139 111.194 23.7072 111.154 23.7039 111.121C23.6838 110.953 23.7039 110.829 23.6838 110.635C23.6838 110.545 23.6838 110.421 23.6838 110.33C23.6838 110.24 23.6369 110.159 23.6336 110.069Z" fill="#455A64"/>
<path d="M22.9533 115.89C22.9533 116.094 22.9097 117.438 23.2882 117.639C23.6667 117.84 23.8141 116.795 23.8141 116.795C23.8141 116.795 24.7016 116.423 26.095 116.872C26.0481 117.093 26.3227 117.783 26.6744 117.595C27.0261 117.407 27.0093 115.877 27.0093 115.857C27.2003 117.196 27.2605 118.235 26.6744 119.253C25.9476 120.539 24.1423 119.889 23.5729 119.099C23.0035 118.308 22.8662 117.699 22.903 116.292C22.9198 116.151 22.9432 116.021 22.9533 115.89Z" fill="#37474F"/>
<path d="M23.9249 116.871C23.9685 117.374 23.4594 117.257 23.3656 116.536C23.2718 115.816 23.4929 114.111 23.3656 112.892C23.3924 111.496 23.3388 110.106 23.6235 110.055C23.6218 110.072 23.6218 110.089 23.6235 110.106L23.657 110.812C23.6504 110.913 23.6504 111.013 23.657 111.114C23.7508 112.139 23.8077 114.128 23.8111 115.073C23.817 115.674 23.855 116.274 23.9249 116.871Z" fill="#263238"/>
<path d="M25.9346 116.872C26.0002 116.279 26.0327 115.683 26.0317 115.086C26.0317 114.148 26.092 112.182 26.1858 111.151C26.2221 110.96 26.2367 110.766 26.2294 110.571C26.2294 110.431 26.2294 110.236 26.2294 110.102C26.2294 110.102 26.2294 110.082 26.2294 110.069C26.4169 110.139 26.4839 110.692 26.5241 111.389C26.5241 111.794 26.5241 112.296 26.4873 112.906C26.36 114.125 26.581 115.853 26.4873 116.56C26.3935 117.267 25.9011 117.374 25.9346 116.872Z" fill="#263238"/>
<path d="M26.1322 116.908H26.0954C25.3716 116.658 24.5851 116.658 23.8613 116.908C23.8481 116.913 23.8341 116.916 23.82 116.915C23.8058 116.915 23.7919 116.912 23.779 116.906C23.7661 116.9 23.7545 116.892 23.7447 116.882C23.735 116.871 23.7274 116.859 23.7223 116.846C23.7173 116.833 23.7149 116.819 23.7152 116.805C23.7156 116.791 23.7188 116.777 23.7245 116.764C23.7303 116.751 23.7385 116.739 23.7488 116.73C23.759 116.72 23.7711 116.712 23.7843 116.707C24.5565 116.431 25.4002 116.431 26.1724 116.707C26.1856 116.712 26.1976 116.719 26.2078 116.729C26.2181 116.739 26.2262 116.75 26.2319 116.763C26.2375 116.776 26.2405 116.79 26.2406 116.804C26.2408 116.818 26.2381 116.832 26.2327 116.845C26.2245 116.864 26.2104 116.881 26.1925 116.892C26.1745 116.904 26.1535 116.909 26.1322 116.908Z" fill="#F5F5F5"/>
<path d="M26.2695 115.796C26.2574 115.799 26.2448 115.799 26.2327 115.796C25.4189 115.544 24.5478 115.544 23.734 115.796C23.7206 115.801 23.7064 115.803 23.6922 115.802C23.678 115.802 23.6641 115.798 23.6513 115.792C23.6386 115.785 23.6271 115.777 23.6178 115.766C23.6084 115.755 23.6012 115.743 23.5967 115.729C23.592 115.716 23.59 115.702 23.5909 115.688C23.5917 115.674 23.5954 115.661 23.6017 115.648C23.6079 115.636 23.6166 115.625 23.6273 115.615C23.638 115.606 23.6503 115.6 23.6637 115.595C24.5233 115.322 25.4467 115.322 26.3063 115.595C26.3299 115.604 26.3496 115.621 26.3621 115.643C26.3745 115.664 26.379 115.69 26.3746 115.715C26.3702 115.739 26.3573 115.762 26.3381 115.778C26.3189 115.794 26.2946 115.803 26.2695 115.803V115.796Z" fill="#F5F5F5"/>
<path d="M23.6901 114.744C23.6696 114.744 23.6496 114.738 23.6325 114.726C23.6153 114.715 23.6016 114.699 23.5929 114.681C23.5816 114.655 23.5809 114.626 23.5909 114.6C23.6009 114.573 23.6209 114.552 23.6465 114.54C24.4926 114.207 25.4322 114.202 26.2825 114.523C26.2956 114.528 26.3077 114.536 26.3179 114.545C26.3281 114.555 26.3363 114.566 26.3419 114.579C26.3476 114.592 26.3505 114.606 26.3507 114.62C26.3508 114.634 26.3481 114.648 26.3428 114.661C26.3323 114.687 26.3121 114.708 26.2864 114.719C26.2607 114.73 26.2317 114.731 26.2054 114.721C26.2054 114.721 24.8925 114.205 23.737 114.721C23.7233 114.732 23.7073 114.74 23.6901 114.744Z" fill="#F5F5F5"/>
<path d="M23.6667 113.76C23.6465 113.76 23.6266 113.754 23.6095 113.744C23.5923 113.733 23.5785 113.718 23.5696 113.7C23.558 113.674 23.5568 113.645 23.5662 113.619C23.5756 113.593 23.5948 113.571 23.6198 113.559C24.0397 113.368 24.495 113.266 24.9564 113.261C25.4178 113.256 25.8752 113.347 26.2993 113.529C26.312 113.535 26.3234 113.543 26.3329 113.553C26.3423 113.563 26.3496 113.575 26.3543 113.588C26.359 113.602 26.361 113.616 26.3602 113.629C26.3594 113.643 26.3558 113.657 26.3496 113.669C26.3438 113.682 26.3356 113.694 26.3253 113.703C26.3151 113.712 26.303 113.72 26.2899 113.724C26.2768 113.729 26.2628 113.731 26.2489 113.73C26.235 113.73 26.2214 113.726 26.2089 113.72C25.811 113.555 25.3838 113.473 24.9531 113.478C24.5225 113.483 24.0974 113.576 23.7036 113.75C23.6919 113.755 23.6795 113.759 23.6667 113.76Z" fill="#F5F5F5"/>
<path d="M23.6431 112.658C23.6186 112.659 23.5946 112.65 23.5753 112.635C23.556 112.62 23.5425 112.599 23.537 112.575C23.5315 112.551 23.5344 112.526 23.5452 112.504C23.556 112.482 23.574 112.464 23.5962 112.454C24.8723 111.824 26.2489 112.427 26.3058 112.454C26.3191 112.459 26.3313 112.467 26.3413 112.477C26.3514 112.487 26.3593 112.499 26.3643 112.512C26.3694 112.525 26.3716 112.54 26.3707 112.554C26.3699 112.568 26.366 112.582 26.3594 112.595C26.3477 112.62 26.3264 112.64 26.3001 112.65C26.2737 112.66 26.2445 112.659 26.2187 112.648C26.2187 112.648 24.879 112.062 23.6933 112.648C23.6778 112.656 23.6604 112.66 23.6431 112.658Z" fill="#F5F5F5"/>
<path d="M24.5643 69.3743C22.8628 74.0868 23.1609 77.0443 23.4523 81.9846C23.7203 86.5129 24.1456 90.502 24.1456 90.502C24.0787 91.3059 22.96 92.8734 22.8059 96.4237C22.7565 98.9236 22.8684 101.424 23.1408 103.909C23.1408 103.909 25.3682 104.723 27.2505 103.909C27.2505 103.909 29.1764 95.4055 29.7022 91.2489C30.1577 87.6216 30.9549 82.9861 30.9549 82.9861L32.6296 91.2322C32.3022 92.3404 32.1342 93.4896 32.1305 94.6452C32.1305 96.5845 33.0315 101.977 33.0315 101.977C33.0315 101.977 35.5268 102.784 37.1077 101.381C37.1077 101.381 37.734 93.6203 37.955 90.6628C38.2498 86.7172 37.8211 75.9022 36.8732 70.3657L24.5643 69.3743Z" fill="#455A64"/>
<path d="M30.9753 82.9726L31.672 76.7695C31.672 76.7695 34.7903 76.3542 36.2037 75.0245C35.7982 75.6587 35.2578 76.1956 34.6209 76.5968C33.984 76.998 33.2665 77.2537 32.5194 77.3456L31.5146 83.1199L32.6534 91.2187L30.9753 82.9726Z" fill="#37474F"/>
<path d="M38.6854 64.7756C37.1682 63.2148 34.4284 59.6846 34.4284 59.6846L32.881 54.3256C33.2268 54.3436 33.5734 54.3436 33.9193 54.3256C35.594 54.4361 36.0863 54.5802 37.128 55.7189C37.9553 56.6266 41.1104 60.9339 42.2056 62.3842L45.1162 58.6764C45.8162 57.6214 45.7023 56.4391 46.0641 55.5783C46.4258 54.7175 47.0119 54.339 47.4808 53.5687C47.9498 52.7983 48.0603 52.2825 48.4455 52.6811C48.8306 53.0797 48.3852 54.1514 48.3282 54.3959C48.2713 54.6405 47.6818 55.3673 48.6632 54.9888C49.6445 54.6103 51.1584 52.8184 51.547 52.4533C51.9355 52.0882 52.1432 52.6543 52.0561 53.1031C51.969 53.5519 52.391 54.5634 52.2369 55.3036C52.141 56.0482 51.7708 56.7301 51.1986 57.2161C50.4919 57.9262 48.7636 58.8004 48.0871 59.7348C47.4105 60.6693 45.9669 63.5732 45.0727 65.3215C43.9506 67.5455 42.9961 68.279 41.7233 67.5288C40.4505 66.7785 39.2448 65.355 38.6854 64.7756Z" fill="#FFA8A7"/>
<path d="M33.3732 54.2685C34.2296 54.1829 35.0942 54.2976 35.8986 54.6034C36.8063 55.012 37.4226 55.8896 38.3102 57.0786C39.1978 58.2676 40.782 60.3476 40.782 60.3476C40.782 60.3476 40.3533 62.1529 37.5264 63.774L32.911 59.0212L33.3732 54.2685Z" fill="#37474F"/>
<path d="M42.2058 62.3808C41.6537 62.9017 41.2838 63.5863 41.1508 64.3335C41.1508 64.3335 40.8158 63.2584 41.958 62.0493L42.2058 62.3808Z" fill="#F28F8F"/>
<path d="M36.7159 63.7842C38.7757 62.0894 38.0958 59.8822 37.3456 58.3951C35.8417 55.4242 34.2775 54.2553 33.6244 54.2653L29.5282 54.3055C27.5721 54.5735 26.0582 54.4395 25.586 54.55C24.3802 54.8347 24.3534 55.8261 24.3065 57.1089C24.2563 58.5157 23.5362 58.2778 23.9012 60.6023C24.3318 61.4663 24.7099 62.3555 25.0333 63.265C25.2544 64.0689 25.8774 65.3483 25.5458 66.6479C25.4185 67.1503 25.0769 67.6527 24.5644 69.0293C23.9834 70.5766 23.5516 72.1759 23.2749 73.8055C23.2749 73.8055 24.4706 73.5275 25.8305 72.0805C25.8305 72.0805 27.6894 74.5691 32.1607 74.3179C36.7996 74.0567 37.2082 71.6384 37.2082 71.6384L36.4982 67.2843C36.6053 65.5259 36.6522 64.8895 36.7159 63.7842Z" fill="#4EBFA0"/>
<path opacity="0.1" d="M34.04 63.3454C34.04 63.3454 32.3654 64.6851 30.3993 64.0421C29.8516 63.8779 29.3551 63.5762 28.957 63.1658C28.5589 62.7554 28.2725 62.2499 28.1251 61.6975C28.1251 61.6975 27.9576 63.9248 30.4294 64.6416C31.0906 64.8422 31.7989 64.8244 32.4492 64.5909C33.0995 64.3575 33.6574 63.9207 34.04 63.3454V63.3454Z" fill="#333930"/>
<path d="M22.3137 52.3528C21.7075 51.9106 18.4418 56.2816 19.9692 57.3768C21.4965 58.472 23.1242 55.3672 22.796 53.9002C22.4678 52.4332 22.3137 52.3528 22.3137 52.3528Z" fill="#37474F"/>
<path d="M19.3493 50.1824C20.1665 49.0503 20.7225 48.1962 21.4694 47.2249C21.8914 46.6723 22.1627 46.2804 22.568 45.7143C22.8494 45.3258 23.0135 44.9976 23.3283 44.8737C23.6798 44.7189 23.9939 44.4905 24.2494 44.2038C24.4058 44.0226 24.5502 43.8312 24.6815 43.631C25.1536 42.9773 25.7176 42.3952 26.3561 41.9028C27.026 41.3836 27.7595 40.9817 28.4428 40.486C28.8481 40.1913 29.2835 39.7056 28.7777 39.2668C28.6205 39.1399 28.4339 39.0547 28.2351 39.019C27.016 38.7745 25.9609 39.2132 24.7752 39.5381C24.2597 39.6787 23.7557 39.859 23.268 40.0774C23.0259 40.1757 22.8001 40.31 22.5982 40.4759C22.3177 40.769 22.0909 41.1091 21.9283 41.4808C21.4091 42.4353 20.3139 43.2861 19.5469 44.033C18.6459 44.9105 17.8421 45.7076 16.8138 46.6823C15.8894 47.5531 14.9817 48.357 14.1343 49.3082C13.4343 50.092 13.7056 50.6948 13.7994 50.8991C14.4023 52.0848 15.0588 52.5035 15.8492 53.2437C16.1105 53.4848 16.3751 53.7227 16.6396 53.9605C17.6646 54.8849 18.6895 55.749 19.7546 56.6399C20.8933 57.5778 21.3622 58.0333 22.3771 58.9443C23.0175 59.5325 23.5512 60.2272 23.9546 60.9975C25.7131 61.2889 27.4413 58.5993 25.9341 55.4543C25.6862 54.9456 25.3113 54.5096 24.8456 54.1882C22.99 52.8652 19.3493 50.1824 19.3493 50.1824Z" fill="#FFA8A7"/>
<path d="M19.3498 50.1824C18.8012 50.8789 18.0642 51.4032 17.2263 51.6929C17.2263 51.6929 18.3484 51.9609 19.8556 50.5575L19.3498 50.1824Z" fill="#F28F8F"/>
<path d="M25.7264 54.5232C25.3145 54.2385 24.313 53.6323 22.3135 52.3528C22.3135 52.3528 22.6216 52.9993 22.1359 54.6237C21.6503 56.2482 20.6254 57.2764 19.9823 57.3936C19.9823 57.3936 21.101 58.2779 22.1326 59.276C23.1642 60.2741 24.0116 60.9808 24.6078 62.1397C24.6078 62.1397 26.0815 61.7612 26.4164 59.2626C26.6509 57.5109 26.5102 55.4544 25.7264 54.5232Z" fill="#455A64"/>
<path d="M36.9133 46.4781C37.2077 45.8559 37.3374 45.1684 37.2899 44.4817C37.2424 43.7949 37.0193 43.1318 36.642 42.5561C35.3726 40.7508 33.2323 39.8766 30.8677 39.9034H30.1342C26.9422 39.957 24.0417 42.6967 23.9847 45.7815C23.9847 47.9519 23.9847 49.9581 25.1805 51.4385C26.2824 52.8151 28.0006 53.2673 29.4509 53.4883C32.2242 53.9104 35.3391 53.5888 36.5984 51.6998C36.5984 51.6998 34.9237 52.0347 35.1347 50.2998C35.1649 50.0251 34.9036 49.7237 34.4448 49.4122C34.7662 48.8554 35.1445 48.3335 35.5735 47.8547C36.0458 47.3825 36.5917 47.1179 36.9133 46.4781Z" fill="#263238"/>
<path d="M36.0863 48.0623C36.0695 51.2944 35.0346 52.1083 34.5154 52.3495C33.9963 52.5906 32.9781 52.4634 31.99 52.3193L32.0235 54.2586C32.0235 54.2586 33.179 55.4275 33.112 56.3185C33.0451 57.2094 31.3436 57.3233 30.0541 56.4893C29.3437 56.0189 28.6994 55.4557 28.1382 54.8146C28.0312 54.6906 27.9707 54.533 27.9674 54.3691L27.887 49.8107C27.887 49.8107 27.3578 50.3901 26.3932 49.7537C26.1848 49.6264 26.0052 49.4571 25.8658 49.2566C25.7263 49.0561 25.6301 48.8287 25.5831 48.5891C25.5362 48.3494 25.5396 48.1026 25.5932 47.8643C25.6467 47.626 25.7492 47.4014 25.8942 47.2049C26.0304 47.0724 26.1941 46.9714 26.3737 46.909C26.5532 46.8467 26.7442 46.8244 26.9333 46.8439C27.1224 46.8634 27.3049 46.9241 27.4679 47.0218C27.631 47.1194 27.7706 47.2517 27.877 47.4092C28.1717 47.9585 28.1449 48.347 28.5469 48.2834C28.9488 48.2197 28.9655 47.7843 28.9923 47.4728C29.0191 47.1613 28.9923 47.0609 29.0325 46.6522C29.9871 46.4479 30.9752 45.1182 31.0857 44.1469C31.7324 44.465 32.445 44.6256 33.1656 44.6158C34.2341 44.5421 34.7867 44.3278 35.3126 43.5574C35.4379 43.7337 35.5382 43.9264 35.6107 44.1302C35.7595 44.5426 35.8715 44.9674 35.9456 45.3996C36.0649 46.2818 36.1119 47.1724 36.0863 48.0623Z" fill="#FFA8A7"/>
<path d="M31.9898 52.3193C30.9482 52.1987 28.8012 51.6226 28.4529 50.7853C28.5937 51.2104 28.8614 51.5821 29.2199 51.8504C29.8697 52.3863 31.9998 52.9657 31.9998 52.9657L31.9898 52.3193Z" fill="#F28F8F"/>
<path d="M33.0385 50.5776C33.0405 50.6619 33.0174 50.7448 32.9722 50.8159C32.9269 50.887 32.8616 50.9431 32.7845 50.977C32.7073 51.0109 32.6219 51.0212 32.5389 51.0064C32.4559 50.9917 32.3792 50.9527 32.3185 50.8943C32.2577 50.8359 32.2157 50.7607 32.1977 50.6784C32.1797 50.5961 32.1865 50.5103 32.2174 50.4319C32.2482 50.3535 32.3017 50.286 32.3709 50.238C32.4402 50.19 32.5222 50.1636 32.6064 50.1623C32.7187 50.1605 32.8271 50.2031 32.908 50.2809C32.9889 50.3587 33.0358 50.4654 33.0385 50.5776Z" fill="#B16668"/>
<path d="M32.4922 47.3956C32.4978 47.455 32.4914 47.5149 32.4737 47.5719C32.4559 47.6289 32.4271 47.6818 32.3888 47.7276C32.3505 47.7733 32.3035 47.8111 32.2506 47.8386C32.1976 47.8661 32.1397 47.8829 32.0803 47.8879C31.9887 47.8977 31.8962 47.8799 31.8148 47.8368C31.7334 47.7937 31.6668 47.7272 31.6234 47.646C31.58 47.5647 31.5619 47.4723 31.5714 47.3807C31.5809 47.2891 31.6176 47.2024 31.6767 47.1317C31.7358 47.0611 31.8147 47.0097 31.9032 46.9842C31.9917 46.9587 32.0858 46.9602 32.1735 46.9886C32.2611 47.0169 32.3383 47.0708 32.3951 47.1433C32.4519 47.2159 32.4857 47.3037 32.4922 47.3956Z" fill="#263238"/>
<path d="M35.5135 47.2049C35.5218 47.3141 35.4867 47.4221 35.4159 47.5055C35.345 47.5889 35.244 47.641 35.135 47.6504C35.08 47.6571 35.0243 47.652 34.9715 47.6352C34.9187 47.6185 34.8702 47.5906 34.8292 47.5534C34.7882 47.5162 34.7557 47.4706 34.7339 47.4197C34.7121 47.3688 34.7015 47.3138 34.7029 47.2585C34.6974 47.2043 34.7028 47.1495 34.7187 47.0974C34.7347 47.0453 34.7609 46.9969 34.7959 46.955C34.8309 46.9132 34.8738 46.8788 34.9223 46.8539C34.9707 46.8289 35.0237 46.8139 35.078 46.8097C35.188 46.8051 35.2953 46.844 35.3768 46.918C35.4583 46.992 35.5074 47.095 35.5135 47.2049Z" fill="#263238"/>
<path d="M33.427 46.7861L33.7485 49.4857L35.1318 48.9096L33.427 46.7861Z" fill="#F28F8F"/>
<path d="M30.8782 46.2301L31.682 45.4665C31.7821 45.5778 31.8355 45.7234 31.8312 45.8731C31.8268 46.0228 31.765 46.165 31.6586 46.2703C31.6055 46.3206 31.5428 46.3596 31.4743 46.3849C31.4057 46.4103 31.3327 46.4214 31.2598 46.4176C31.1868 46.4139 31.1153 46.3953 31.0497 46.3631C30.9841 46.3308 30.9258 46.2856 30.8782 46.2301Z" fill="#263238"/>
<path d="M34.9008 45.2185L35.7917 45.8884C35.7507 45.9489 35.6977 46.0003 35.6361 46.0396C35.5745 46.0788 35.5054 46.1051 35.4333 46.1167C35.3611 46.1283 35.2874 46.125 35.2165 46.1071C35.1457 46.0891 35.0793 46.0569 35.0214 46.0123C34.9047 45.9197 34.8274 45.7864 34.805 45.6391C34.7827 45.4918 34.8169 45.3416 34.9008 45.2185Z" fill="#263238"/>
<path d="M22.059 20.6847C22.7012 20.5622 23.3577 20.5329 24.0083 20.5976C24.6301 20.6521 25.237 20.8177 25.8002 21.0866C26.3407 21.3446 26.8184 21.7172 27.2003 22.1785C27.6029 22.6722 27.8706 23.2619 27.9773 23.89C28.0777 24.3829 28.0777 24.8909 27.9773 25.3838C27.8873 25.8128 27.7337 26.226 27.5218 26.6097C27.3161 26.9831 27.0773 27.3373 26.8084 27.6681C26.5404 28.003 26.2859 28.3112 26.0481 28.6092C25.8206 28.8898 25.6189 29.1902 25.4452 29.5069C25.2856 29.788 25.2078 30.1083 25.2208 30.4313C25.2228 30.5815 25.1846 30.7295 25.1103 30.86C25.0752 30.9217 25.027 30.975 24.9692 31.0161C24.9113 31.0572 24.8451 31.0851 24.7753 31.0978L23.1978 31.3959C23.1228 31.4108 23.0457 31.4105 22.9709 31.395C22.8961 31.3794 22.8252 31.349 22.7624 31.3055C22.697 31.2681 22.6418 31.2152 22.6015 31.1516C22.5612 31.088 22.5371 31.0155 22.5313 30.9404C22.4544 30.4448 22.4794 29.9388 22.6049 29.4533C22.724 29.0207 22.8985 28.6053 23.1241 28.2174C23.3422 27.848 23.5921 27.4983 23.871 27.1724C24.149 26.8374 24.4002 26.536 24.6313 26.2413C24.8438 25.9765 25.0279 25.6903 25.1806 25.3872C25.312 25.1241 25.3532 24.8252 25.2978 24.5364C25.2533 24.2819 25.1474 24.0421 24.9892 23.8378C24.8311 23.6335 24.6254 23.4709 24.3901 23.3641C23.8066 23.0989 23.1511 23.0365 22.5279 23.1866C21.3534 23.4099 20.5998 24.1624 20.2671 25.4441C20.2378 25.5792 20.1857 25.7083 20.113 25.8259C20.0201 25.9333 19.8893 26.0005 19.7479 26.0135L18.0733 26.3317C17.9576 26.3523 17.8384 26.3296 17.7383 26.268C17.6857 26.2333 17.641 26.1879 17.6069 26.1349C17.5729 26.0818 17.5504 26.0222 17.5407 25.9599C17.4684 25.4316 17.5259 24.8935 17.7082 24.3924C17.8978 23.8136 18.1881 23.2727 18.5656 22.7948C18.989 22.2714 19.4933 21.8191 20.0594 21.455C20.6696 21.0708 21.3488 20.8092 22.059 20.6847V20.6847ZM25.117 32.3237C25.2659 32.2979 25.419 32.331 25.544 32.416C25.669 32.501 25.756 32.6312 25.7868 32.7792L26.1218 34.6079C26.137 34.6812 26.1369 34.7569 26.1213 34.8302C26.1058 34.9034 26.0751 34.9726 26.0313 35.0333C25.9902 35.0956 25.937 35.1491 25.8749 35.1905C25.8127 35.2319 25.7429 35.2605 25.6696 35.2745L23.8844 35.6094C23.8106 35.6248 23.7344 35.6247 23.6606 35.6091C23.5868 35.5935 23.517 35.5628 23.4557 35.519C23.3934 35.4778 23.3399 35.4246 23.2985 35.3625C23.2571 35.3004 23.2285 35.2306 23.2145 35.1572L22.8796 33.3285C22.8656 33.2549 22.8667 33.1793 22.8828 33.1062C22.8989 33.0331 22.9297 32.964 22.9734 32.9031C23.0135 32.8399 23.0664 32.7858 23.1287 32.7442C23.191 32.7027 23.2613 32.6747 23.3351 32.662L25.117 32.3237Z" fill="#4EBFA0"/>
<path d="M39.0804 28.2309C39.4754 28.4499 39.8364 28.7252 40.1522 29.0481C40.4591 29.3507 40.7078 29.7072 40.8857 30.0998C41.0564 30.4753 41.1443 30.8831 41.1436 31.2955C41.1432 31.7351 41.0277 32.167 40.8087 32.5482C40.6446 32.8536 40.4228 33.1244 40.1555 33.3453C39.9162 33.5312 39.651 33.6812 39.3684 33.7908C39.0938 33.8981 38.8102 33.981 38.521 34.0386L37.7038 34.1994C37.4587 34.2465 37.2186 34.3172 36.987 34.4104C36.7786 34.4878 36.5963 34.6224 36.4612 34.7989C36.3953 34.88 36.3084 34.9414 36.21 34.9765C36.1637 34.9938 36.1142 35.0007 36.065 34.9966C36.0158 34.9926 35.9681 34.9777 35.9253 34.953L34.9573 34.4104C34.8632 34.3589 34.7933 34.2722 34.7631 34.1693C34.7466 34.1204 34.7417 34.0683 34.7486 34.0172C34.7556 33.9661 34.7743 33.9172 34.8033 33.8745C34.9816 33.5784 35.2187 33.3219 35.4999 33.1209C35.7548 32.9429 36.0318 32.7988 36.3239 32.6922C36.604 32.5925 36.8919 32.5163 37.1846 32.4644C37.476 32.4142 37.7473 32.364 38.0019 32.3104C38.2316 32.2624 38.456 32.1917 38.6718 32.0994C38.858 32.0172 39.0129 31.8775 39.1139 31.7008C39.2018 31.5454 39.2508 31.3709 39.2567 31.1925C39.2625 31.014 39.225 30.8367 39.1474 30.6759C38.9561 30.277 38.6365 29.9538 38.2397 29.7582C37.8979 29.5607 37.5036 29.4733 37.1104 29.5081C36.7172 29.5429 36.3443 29.698 36.0425 29.9524C35.9678 30.0131 35.8827 30.0596 35.7913 30.0897C35.6954 30.1057 35.5971 30.0841 35.5167 30.0295L34.4851 29.4534C34.4121 29.4123 34.3571 29.3454 34.331 29.2658C34.318 29.2242 34.3139 29.1803 34.3191 29.137C34.3243 29.0937 34.3386 29.052 34.3611 29.0146C34.5567 28.7032 34.8244 28.4436 35.1415 28.2576C35.5026 28.0397 35.8995 27.8878 36.3138 27.8088C36.7673 27.7199 37.2322 27.7052 37.6904 27.7653C38.1794 27.8297 38.6513 27.9877 39.0804 28.2309V28.2309ZM35.5502 35.7502C35.5956 35.7754 35.6357 35.8094 35.6679 35.8502C35.7001 35.891 35.7238 35.9379 35.7377 35.988C35.7526 36.0373 35.7572 36.0892 35.7515 36.1404C35.7457 36.1917 35.7297 36.2412 35.7042 36.2861L35.0779 37.4081C35.0271 37.4994 34.9422 37.5669 34.8418 37.5957C34.7413 37.6246 34.6336 37.6125 34.542 37.5622L33.4468 36.9492C33.4007 36.9253 33.3603 36.8916 33.3285 36.8506C33.2967 36.8095 33.2742 36.762 33.2626 36.7114C33.2466 36.6624 33.2411 36.6105 33.2463 36.5592C33.2515 36.5079 33.2673 36.4582 33.2927 36.4133L33.919 35.2913C33.9444 35.2463 33.9785 35.2069 34.0194 35.1752C34.0602 35.1436 34.1069 35.1204 34.1568 35.1071C34.2061 35.0914 34.2581 35.0863 34.3094 35.0921C34.3608 35.0979 34.4104 35.1144 34.4549 35.1406L35.5502 35.7502Z" fill="#4EBFA0"/>
<g opacity="0.2">
<path opacity="0.2" d="M39.0804 28.2309C39.4754 28.4499 39.8364 28.7252 40.1522 29.0481C40.4591 29.3507 40.7078 29.7072 40.8857 30.0998C41.0564 30.4753 41.1443 30.8831 41.1436 31.2955C41.1432 31.7351 41.0277 32.167 40.8087 32.5482C40.6446 32.8536 40.4228 33.1244 40.1555 33.3453C39.9162 33.5312 39.651 33.6812 39.3684 33.7908C39.0938 33.8981 38.8102 33.981 38.521 34.0386L37.7038 34.1994C37.4587 34.2465 37.2186 34.3172 36.987 34.4104C36.7786 34.4878 36.5963 34.6224 36.4612 34.7989C36.3953 34.88 36.3084 34.9414 36.21 34.9765C36.1637 34.9938 36.1142 35.0007 36.065 34.9966C36.0158 34.9926 35.9681 34.9777 35.9253 34.953L34.9573 34.4104C34.8632 34.3589 34.7933 34.2722 34.7631 34.1693C34.7466 34.1204 34.7417 34.0683 34.7486 34.0172C34.7556 33.9661 34.7743 33.9172 34.8033 33.8745C34.9816 33.5784 35.2187 33.3219 35.4999 33.1209C35.7548 32.9429 36.0318 32.7988 36.3239 32.6922C36.604 32.5925 36.8919 32.5163 37.1846 32.4644C37.476 32.4142 37.7473 32.364 38.0019 32.3104C38.2316 32.2624 38.456 32.1917 38.6718 32.0994C38.858 32.0172 39.0129 31.8775 39.1139 31.7008C39.2018 31.5454 39.2508 31.3709 39.2567 31.1925C39.2625 31.014 39.225 30.8367 39.1474 30.6759C38.9561 30.277 38.6365 29.9538 38.2397 29.7582C37.8979 29.5607 37.5036 29.4733 37.1104 29.5081C36.7172 29.5429 36.3443 29.698 36.0425 29.9524C35.9678 30.0131 35.8827 30.0596 35.7913 30.0897C35.6954 30.1057 35.5971 30.0841 35.5167 30.0295L34.4851 29.4534C34.4121 29.4123 34.3571 29.3454 34.331 29.2658C34.318 29.2242 34.3139 29.1803 34.3191 29.137C34.3243 29.0937 34.3386 29.052 34.3611 29.0146C34.5567 28.7032 34.8244 28.4436 35.1415 28.2576C35.5026 28.0397 35.8995 27.8878 36.3138 27.8088C36.7673 27.7199 37.2322 27.7052 37.6904 27.7653C38.1794 27.8297 38.6513 27.9877 39.0804 28.2309V28.2309ZM35.5502 35.7502C35.5956 35.7754 35.6357 35.8094 35.6679 35.8502C35.7001 35.891 35.7238 35.9379 35.7377 35.988C35.7526 36.0373 35.7572 36.0892 35.7515 36.1404C35.7457 36.1917 35.7297 36.2412 35.7042 36.2861L35.0779 37.4081C35.0271 37.4994 34.9422 37.5669 34.8418 37.5957C34.7413 37.6246 34.6336 37.6125 34.542 37.5622L33.4468 36.9492C33.4007 36.9253 33.3603 36.8916 33.3285 36.8506C33.2967 36.8095 33.2742 36.762 33.2626 36.7114C33.2466 36.6624 33.2411 36.6105 33.2463 36.5592C33.2515 36.5079 33.2673 36.4582 33.2927 36.4133L33.919 35.2913C33.9444 35.2463 33.9785 35.2069 34.0194 35.1752C34.0602 35.1436 34.1069 35.1204 34.1568 35.1071C34.2061 35.0914 34.2581 35.0863 34.3094 35.0921C34.3608 35.0979 34.4104 35.1144 34.4549 35.1406L35.5502 35.7502Z" fill="#333930"/>
</g>
<path d="M15.4878 40.5297C15.5324 40.4875 15.5851 40.4548 15.6426 40.4335C15.7002 40.4122 15.7615 40.4028 15.8228 40.4058C15.8856 40.4066 15.9477 40.4201 16.0052 40.4454C16.0627 40.4707 16.1146 40.5074 16.1577 40.5531L17.1893 41.6718C17.2317 41.7174 17.2647 41.771 17.2864 41.8295C17.308 41.8879 17.3179 41.9501 17.3154 42.0123C17.3129 42.0746 17.2981 42.1358 17.2719 42.1923C17.2456 42.2488 17.2085 42.2996 17.1625 42.3417L16.0706 43.3465C16.025 43.3889 15.9714 43.4219 15.913 43.4436C15.8545 43.4652 15.7924 43.4751 15.7301 43.4726C15.6678 43.4701 15.6067 43.4553 15.5501 43.4291C15.4936 43.4028 15.4428 43.3657 15.4007 43.3197L14.3691 42.201C14.3263 42.1556 14.2929 42.1021 14.271 42.0436C14.2491 41.9851 14.2391 41.9228 14.2416 41.8604C14.2441 41.798 14.2591 41.7368 14.2856 41.6802C14.3121 41.6237 14.3496 41.573 14.3959 41.5311L15.4878 40.5297ZM8.32021 33.7807C8.71186 33.4147 9.15402 33.1068 9.63315 32.8664C10.0881 32.6364 10.5803 32.489 11.0868 32.4309C11.573 32.3773 12.065 32.4275 12.5303 32.5783C13.0247 32.7471 13.4668 33.0414 13.8132 33.4324C14.103 33.7269 14.3308 34.0765 14.483 34.4607C14.6059 34.7976 14.6781 35.1509 14.6974 35.509C14.7165 35.8577 14.7053 36.2073 14.6639 36.554C14.6203 36.8889 14.5802 37.2239 14.5433 37.5354C14.507 37.8286 14.4969 38.1245 14.5132 38.4196C14.5243 38.6848 14.6102 38.9414 14.761 39.1598C14.8259 39.2599 14.8629 39.3755 14.8682 39.4947C14.8711 39.5534 14.8606 39.612 14.8373 39.666C14.8141 39.72 14.7788 39.768 14.7342 39.8062L13.7696 40.7005C13.6781 40.7834 13.5581 40.8278 13.4347 40.8244C13.3734 40.8267 13.3126 40.8142 13.2572 40.7879C13.2018 40.7617 13.1535 40.7225 13.1165 40.6737C12.8485 40.3621 12.6458 40 12.5203 39.6086C12.4154 39.2571 12.3569 38.8934 12.3461 38.5268C12.3357 38.1729 12.3558 37.8188 12.4064 37.4684C12.4567 37.1334 12.4969 36.7985 12.5303 36.4971C12.5603 36.2199 12.5603 35.9403 12.5303 35.6631C12.5085 35.4243 12.4084 35.1994 12.2457 35.0233C12.104 34.8664 11.9264 34.7463 11.728 34.6734C11.5296 34.6004 11.3164 34.5769 11.1069 34.6047C10.5901 34.6715 10.1097 34.907 9.74033 35.2746C9.02134 35.9444 8.82373 36.794 9.1475 37.8234C9.18722 37.9306 9.20763 38.044 9.20779 38.1583C9.19949 38.2147 9.18013 38.2689 9.15081 38.3178C9.1215 38.3666 9.08281 38.4092 9.03697 38.443L8.00872 39.3943C7.93686 39.4637 7.84066 39.5021 7.74077 39.5014C7.68961 39.5006 7.63922 39.4888 7.59301 39.4668C7.54679 39.4449 7.50581 39.4133 7.47282 39.3742C7.18809 39.0447 6.98906 38.6501 6.89338 38.2253C6.77973 37.7393 6.75364 37.2368 6.81634 36.7416C6.88512 36.1987 7.04121 35.6705 7.27855 35.1774C7.53135 34.6484 7.88522 34.1739 8.32021 33.7807V33.7807Z" fill="#4EBFA0"/>
<g opacity="0.6">
<path opacity="0.6" d="M15.4878 40.5297C15.5324 40.4875 15.5851 40.4548 15.6426 40.4335C15.7002 40.4122 15.7615 40.4028 15.8228 40.4058C15.8856 40.4066 15.9477 40.4201 16.0052 40.4454C16.0627 40.4707 16.1146 40.5074 16.1577 40.5531L17.1893 41.6718C17.2317 41.7174 17.2647 41.771 17.2864 41.8295C17.308 41.8879 17.3179 41.9501 17.3154 42.0123C17.3129 42.0746 17.2981 42.1358 17.2719 42.1923C17.2456 42.2488 17.2085 42.2996 17.1625 42.3417L16.0706 43.3465C16.025 43.3889 15.9714 43.4219 15.913 43.4436C15.8545 43.4652 15.7924 43.4751 15.7301 43.4726C15.6678 43.4701 15.6067 43.4553 15.5501 43.4291C15.4936 43.4028 15.4428 43.3657 15.4007 43.3197L14.3691 42.201C14.3263 42.1556 14.2929 42.1021 14.271 42.0436C14.2491 41.9851 14.2391 41.9228 14.2416 41.8604C14.2441 41.798 14.2591 41.7368 14.2856 41.6802C14.3121 41.6237 14.3496 41.573 14.3959 41.5311L15.4878 40.5297ZM8.32021 33.7807C8.71186 33.4147 9.15402 33.1068 9.63315 32.8664C10.0881 32.6364 10.5803 32.489 11.0868 32.4309C11.573 32.3773 12.065 32.4275 12.5303 32.5783C13.0247 32.7471 13.4668 33.0414 13.8132 33.4324C14.103 33.7269 14.3308 34.0765 14.483 34.4607C14.6059 34.7976 14.6781 35.1509 14.6974 35.509C14.7165 35.8577 14.7053 36.2073 14.6639 36.554C14.6203 36.8889 14.5802 37.2239 14.5433 37.5354C14.507 37.8286 14.4969 38.1245 14.5132 38.4196C14.5243 38.6848 14.6102 38.9414 14.761 39.1598C14.8259 39.2599 14.8629 39.3755 14.8682 39.4947C14.8711 39.5534 14.8606 39.612 14.8373 39.666C14.8141 39.72 14.7788 39.768 14.7342 39.8062L13.7696 40.7005C13.6781 40.7834 13.5581 40.8278 13.4347 40.8244C13.3734 40.8267 13.3126 40.8142 13.2572 40.7879C13.2018 40.7617 13.1535 40.7225 13.1165 40.6737C12.8485 40.3621 12.6458 40 12.5203 39.6086C12.4154 39.2571 12.3569 38.8934 12.3461 38.5268C12.3357 38.1729 12.3558 37.8188 12.4064 37.4684C12.4567 37.1334 12.4969 36.7985 12.5303 36.4971C12.5603 36.2199 12.5603 35.9403 12.5303 35.6631C12.5085 35.4243 12.4084 35.1994 12.2457 35.0233C12.104 34.8664 11.9264 34.7463 11.728 34.6734C11.5296 34.6004 11.3164 34.5769 11.1069 34.6047C10.5901 34.6715 10.1097 34.907 9.74033 35.2746C9.02134 35.9444 8.82373 36.794 9.1475 37.8234C9.18722 37.9306 9.20763 38.044 9.20779 38.1583C9.19949 38.2147 9.18013 38.2689 9.15081 38.3178C9.1215 38.3666 9.08281 38.4092 9.03697 38.443L8.00872 39.3943C7.93686 39.4637 7.84066 39.5021 7.74077 39.5014C7.68961 39.5006 7.63922 39.4888 7.59301 39.4668C7.54679 39.4449 7.50581 39.4133 7.47282 39.3742C7.18809 39.0447 6.98906 38.6501 6.89338 38.2253C6.77973 37.7393 6.75364 37.2368 6.81634 36.7416C6.88512 36.1987 7.04121 35.6705 7.27855 35.1774C7.53135 34.6484 7.88522 34.1739 8.32021 33.7807V33.7807Z" fill="white"/>
</g>
<path d="M83.6907 63.8981C82.7362 63.3522 78.7169 61.0277 77.3504 60.2373C77.0791 60.0832 76.9083 59.9827 76.8949 59.9727C76.2154 59.5939 75.4215 59.4749 74.6609 59.6378C74.0079 59.7703 73.3826 60.0139 72.812 60.3579C72.7182 60.4115 72.6245 60.4751 72.534 60.5354C70.99 61.51 69.6636 63.0441 68.5583 65.1541C67.4329 67.2095 66.8291 69.5097 66.7999 71.8529C66.7999 74.0724 67.3916 75.6298 68.5751 76.5252C68.6949 76.6145 68.8202 76.6961 68.9502 76.7697C70.0589 77.3994 75.6188 80.6215 75.7427 80.6918H75.7729C75.6361 80.6169 75.5051 80.5318 75.381 80.4373C74.1953 79.5441 73.6036 77.9878 73.6058 75.7683C73.635 73.4251 74.2388 71.1249 75.3642 69.0695C76.532 66.8366 77.9488 65.2368 79.6146 64.2699C81.1999 63.3544 82.5687 63.235 83.7209 63.9115L83.6907 63.8981Z" fill="#4EBFA0"/>
<path opacity="0.4" d="M83.7208 63.9182C82.5687 63.2483 81.1999 63.3667 79.6145 64.2732C78.0671 65.1664 76.733 66.6178 75.612 68.6274L68.8062 64.6852C69.8579 62.8062 71.1005 61.4229 72.5306 60.522C72.6211 60.465 72.7149 60.398 72.8086 60.3444C73.3786 60 74.0043 59.7574 74.6575 59.6277C75.4181 59.4629 76.2127 59.5821 76.8915 59.9626L77.347 60.2272C78.7136 61.0143 82.7328 63.3388 83.6873 63.8847L83.7208 63.9182Z" fill="#333930"/>
<path opacity="0.3" d="M75.7729 80.6816H75.7427C75.6188 80.6113 70.0488 77.3892 68.9502 76.7595C68.8202 76.6859 68.6949 76.6042 68.5751 76.515C67.3916 75.6218 66.7999 74.0655 66.7999 71.846C66.8283 69.5027 67.4321 67.2023 68.5583 65.1473C68.6387 64.9899 68.7225 64.8358 68.8095 64.6884L75.6121 68.6172C75.5284 68.7646 75.4446 68.9187 75.3642 69.0727C74.2388 71.1281 73.635 73.4283 73.6058 75.7714C73.6058 77.9909 74.1976 79.5473 75.381 80.4404C75.5055 80.5303 75.6365 80.6109 75.7729 80.6816V80.6816Z" fill="#333930"/>
<path d="M80.7232 6.42764C84.0256 4.5185 86.8369 3.70684 89.1568 3.99265C90.101 4.10545 91.0126 4.40853 91.8363 4.88358C91.8133 4.87143 91.7909 4.85801 91.7693 4.84339C90.9722 4.39458 86.1692 1.62466 85.0706 0.978235C84.2326 0.48844 83.3019 0.178202 82.3376 0.0672092C80.0153 -0.21637 77.203 0.594175 73.9005 2.49884C68.7649 5.46191 64.634 9.81607 61.5079 15.5613C58.3819 21.3066 56.8356 27.1713 56.8691 33.1555L63.6716 37.0843C63.6247 31.0957 65.171 25.2298 68.3105 19.4868C71.4499 13.7437 75.5875 9.3907 80.7232 6.42764Z" fill="#4EBFA0"/>
<path opacity="0.2" d="M91.783 4.84211C90.9713 4.38999 90.0795 4.09992 89.1571 3.98803C86.8393 3.70222 84.0281 4.51388 80.7234 6.42301C75.5877 9.38384 71.4568 13.738 68.3308 19.4855C68.2001 19.7233 68.0729 19.9645 67.9489 20.2023L61.1296 16.2668C61.2536 16.029 61.3808 15.7878 61.5115 15.55C64.6509 9.80921 68.7818 5.45505 73.9041 2.48752C77.211 0.580614 80.0234 -0.22993 82.3411 0.0558818C83.3057 0.168001 84.2364 0.479377 85.0742 0.970256C86.1829 1.62338 90.9858 4.39665 91.783 4.84211Z" fill="#333930"/>
<path opacity="0.3" d="M67.9321 20.1954C65.0494 25.7084 63.6304 31.3342 63.6751 37.0728L56.8725 33.144C56.8301 27.4032 58.2491 21.7774 61.1295 16.2666L67.9321 20.1954Z" fill="#333930"/>
<path d="M85.3457 17.5562C84.1109 16.8997 82.4619 17.1565 80.3987 18.3265C80.329 19.5541 80.0761 20.7643 79.6485 21.917C79.1327 23.3059 77.6321 26.1707 75.1469 30.5115C72.5724 34.9996 70.7101 39.2857 69.5602 43.3697C68.4196 47.4018 67.8403 51.5719 67.8386 55.7623L67.8721 57.8489L72.5143 60.5284L74.678 61.7777L74.6412 59.6877V59.6609C74.6485 55.4842 75.2278 51.3281 76.3627 47.3085C77.5127 43.2245 79.376 38.9396 81.9528 34.4537C84.4358 30.1129 85.9352 27.247 86.451 25.8559C86.9661 24.4806 87.2293 23.0239 87.2281 21.5553C87.2281 19.5569 86.6006 18.2238 85.3457 17.5562Z" fill="#4EBFA0"/>
<path opacity="0.3" d="M85.7845 27.3598C85.0164 28.9585 83.7391 31.3187 81.9528 34.4403C79.3738 38.9285 77.5105 43.2145 76.3627 47.2985C75.2266 51.3213 74.6473 55.4808 74.6412 59.661V59.7146L74.678 61.8046L72.5143 60.5586L67.8721 57.8791L67.8386 55.7891C67.8406 51.5988 68.4199 47.4287 69.5602 43.3965C70.7101 39.3125 72.5724 35.0265 75.1469 30.5383C76.9332 27.4122 78.2127 25.0532 78.9853 23.4611L85.7845 27.3598Z" fill="#333930"/>
<path opacity="0.4" d="M87.2276 21.5553C87.2283 23.0192 86.9663 24.4712 86.4539 25.8425C86.3099 26.2344 86.0855 26.7401 85.7841 27.3598L78.9849 23.4343C79.2818 22.8136 79.5051 22.3078 79.6547 21.917C80.0824 20.7643 80.3353 19.5541 80.405 18.3265C82.4682 17.1565 84.1172 16.8997 85.352 17.5562C86.5868 18.2127 87.212 19.5457 87.2276 21.5553Z" fill="#333930"/>
<path d="M72.8825 31.7542L63.6751 37.073C63.6282 31.0844 65.1745 25.2185 68.314 19.4755C71.4534 13.7324 75.5843 9.37829 80.7066 6.41299C84.0091 4.50385 86.8203 3.69219 89.1403 3.97801C91.4603 4.26382 93.3169 5.53546 94.7103 7.79292C96.1058 10.0504 96.8036 12.8661 96.8036 16.24C96.7898 18.1988 96.5652 20.1504 96.1337 22.0612C95.6118 24.3468 94.9073 26.5869 94.027 28.7599C93.4643 30.18 92.1168 32.8015 89.9843 36.6242C87.9457 40.2683 86.6685 42.7479 86.1527 44.0631C85.5801 45.6243 85.1551 47.2357 84.8833 48.8761C84.4777 51.3281 84.2538 53.8067 84.2134 56.2916L74.6912 61.7913L74.6543 59.7013C74.6563 55.5109 75.2356 51.3408 76.3759 47.3086C77.5258 43.2247 79.3892 38.9397 81.966 34.4538C84.449 30.113 85.9483 27.2471 86.4641 25.856C86.9747 24.4799 87.2333 23.0232 87.2278 21.5554C87.2278 19.5458 86.6015 18.2128 85.3488 17.5563C84.0962 16.8998 82.4148 17.1745 80.3047 18.3802C78.1477 19.6262 76.3781 21.4951 74.9959 23.9871C73.6442 26.355 72.9169 29.0278 72.8825 31.7542V31.7542Z" fill="#4EBFA0"/>
<path d="M79.5975 64.2931C81.3057 63.3039 82.7638 63.2425 83.9718 64.1089C85.1798 64.9753 85.7838 66.5171 85.7838 68.7344C85.7472 71.0903 85.1319 73.4011 83.9919 75.4632C82.7995 77.7296 81.3582 79.3507 79.6679 80.3265C77.9776 81.3023 76.5418 81.3425 75.3606 80.4471C74.1772 79.5539 73.5854 77.9965 73.5854 75.7747C73.6146 73.4316 74.2184 71.1314 75.3439 69.076C76.5161 66.8476 77.934 65.2533 79.5975 64.2931Z" fill="#4EBFA0"/>
</svg>
