<svg width="24" height="24" viewBox="0 0 24 24" fill="none" xmlns="http://www.w3.org/2000/svg">
<path d="M7.49875 16C8.04875 16 8.49875 16.45 8.49875 17C8.49875 18.1 7.59875 19 6.49875 19C6.32875 19 6.16875 18.98 5.99875 18.95C6.30875 18.4 6.49875 17.74 6.49875 17C6.49875 16.45 6.94875 16 7.49875 16ZM19.1688 3C18.9088 3 18.6588 3.1 18.4587 3.29L9.49875 12.25L12.2488 15L21.2087 6.04C21.5987 5.65 21.5987 5.02 21.2087 4.63L19.8688 3.29C19.6688 3.09 19.4188 3 19.1688 3ZM7.49875 14C5.83875 14 4.49875 15.34 4.49875 17C4.49875 18.31 3.33875 19 2.49875 19C3.41875 20.22 4.98875 21 6.49875 21C8.70875 21 10.4988 19.21 10.4988 17C10.4988 15.34 9.15875 14 7.49875 14Z" fill="#4EBFA0"/>
</svg>
