<svg width="212" height="56" viewBox="0 0 212 56" fill="none" xmlns="http://www.w3.org/2000/svg">
<g style="mix-blend-mode:multiply">
<path fill-rule="evenodd" clip-rule="evenodd" d="M10.5 29.4C10.5 29.0134 10.8134 28.7 11.2 28.7L45.92 28.7C46.3066 28.7 46.62 29.0134 46.62 29.4C46.62 29.7866 46.3066 30.1 45.92 30.1L11.2 30.1C10.8134 30.1 10.5 29.7866 10.5 29.4Z" fill="#29282D"/>
<path fill-rule="evenodd" clip-rule="evenodd" d="M33.7179 28.71C34.099 28.7751 34.3551 29.1368 34.29 29.5179C33.6456 33.2897 33.0068 36.1432 31.8444 39.0168C30.6823 41.8898 29.0099 44.7508 26.3328 48.5623C26.1106 48.8787 25.674 48.955 25.3577 48.7328C25.0413 48.5106 24.965 48.074 25.1872 47.7577C27.835 43.9877 29.4409 41.2252 30.5466 38.4918C31.6521 35.759 32.2708 33.0232 32.91 29.2821C32.9751 28.901 33.3368 28.6449 33.7179 28.71Z" fill="#29282D"/>
<path d="M10.08 19.04C10.08 16.5658 12.0858 14.56 14.56 14.56H29.68C32.1543 14.56 34.16 16.5658 34.16 19.04V19.04C34.16 21.5142 32.1543 23.52 29.68 23.52H14.56C12.0858 23.52 10.08 21.5142 10.08 19.04V19.04Z" fill="#D8425D"/>
<path fill-rule="evenodd" clip-rule="evenodd" d="M29.68 15.96H14.56C12.859 15.96 11.48 17.339 11.48 19.04C11.48 20.741 12.859 22.12 14.56 22.12H29.68C31.3811 22.12 32.76 20.741 32.76 19.04C32.76 17.339 31.3811 15.96 29.68 15.96ZM14.56 14.56C12.0858 14.56 10.08 16.5658 10.08 19.04C10.08 21.5142 12.0858 23.52 14.56 23.52H29.68C32.1543 23.52 34.16 21.5142 34.16 19.04C34.16 16.5658 32.1543 14.56 29.68 14.56H14.56Z" fill="#29282D"/>
<path d="M41.888 12.32C41.888 14.7942 39.8823 16.8 37.408 16.8C34.9338 16.8 32.928 14.7942 32.928 12.32C32.928 9.84576 34.9338 7.84 37.408 7.84C39.8823 7.84 41.888 9.84576 41.888 12.32Z" fill="#F9D811"/>
<path fill-rule="evenodd" clip-rule="evenodd" d="M37.408 15.4C39.1091 15.4 40.488 14.021 40.488 12.32C40.488 10.619 39.1091 9.24 37.408 9.24C35.707 9.24 34.328 10.619 34.328 12.32C34.328 14.021 35.707 15.4 37.408 15.4ZM37.408 16.8C39.8823 16.8 41.888 14.7942 41.888 12.32C41.888 9.84576 39.8823 7.84 37.408 7.84C34.9338 7.84 32.928 9.84576 32.928 12.32C32.928 14.7942 34.9338 16.8 37.408 16.8Z" fill="#29282D"/>
<path d="M46.368 19.04C46.368 20.8957 44.8637 22.4 43.008 22.4C41.1523 22.4 39.648 20.8957 39.648 19.04C39.648 17.1843 41.1523 15.68 43.008 15.68C44.8637 15.68 46.368 17.1843 46.368 19.04Z" fill="#2CB1C0"/>
<path fill-rule="evenodd" clip-rule="evenodd" d="M43.008 21C44.0905 21 44.968 20.1225 44.968 19.04C44.968 17.9575 44.0905 17.08 43.008 17.08C41.9255 17.08 41.048 17.9575 41.048 19.04C41.048 20.1225 41.9255 21 43.008 21ZM43.008 22.4C44.8637 22.4 46.368 20.8957 46.368 19.04C46.368 17.1843 44.8637 15.68 43.008 15.68C41.1523 15.68 39.648 17.1843 39.648 19.04C39.648 20.8957 41.1523 22.4 43.008 22.4Z" fill="#29282D"/>
<path d="M75.266 24.862L76.254 24.446C76.878 25.538 77.5627 26.8727 78.308 28.45L77.32 28.814C76.8347 27.7567 76.15 26.4393 75.266 24.862ZM78.438 24.368L79.426 23.978C80.2753 25.5033 80.9773 26.864 81.532 28.06L80.544 28.45C79.7987 26.9073 79.0967 25.5467 78.438 24.368ZM57.248 30.972H61.928V26.162H63.176V30.972H73.316V26.162H74.59V30.972H79.712V32.142H74.59V33.858C74.59 38.278 73.706 41.4587 71.938 43.4C70.1873 45.3413 67.0933 46.5287 62.656 46.962L62.448 45.792C64.5627 45.5667 66.296 45.2113 67.648 44.726C69 44.2407 70.1093 43.5213 70.976 42.568C71.8427 41.6147 72.4493 40.4533 72.796 39.084C73.1427 37.6973 73.316 35.9553 73.316 33.858V32.142H63.176V38.33H61.928V32.142H57.248V30.972ZM84.678 36.588C88.4393 36.0507 92.1053 34.8893 95.676 33.104C99.2467 31.3013 102.098 29.178 104.23 26.734L105.062 27.592C103.069 29.8627 100.443 31.882 97.184 33.65V47.092H95.858V34.326C92.27 36.094 88.604 37.238 84.86 37.758L84.678 36.588ZM112.056 28.424L112.654 27.306C115.427 28.7447 118.053 30.2613 120.532 31.856L119.882 32.974C117.299 31.2927 114.691 29.776 112.056 28.424ZM131.79 29.88C130.923 34.768 128.895 38.5813 125.706 41.32C122.517 44.0587 118.227 45.662 112.836 46.13L112.654 44.908C122.898 43.9893 128.869 38.8933 130.568 29.62L131.79 29.88ZM137.978 28.112H155.918V45.168H137.978V43.998H154.67V29.282H137.978V28.112ZM162.522 37.264V36.016H183.478V37.264H162.522ZM191.07 28.762V27.592H206.93V28.762C205.751 31.8473 203.784 34.82 201.028 37.68C203.853 40.3493 206.514 43.0273 209.01 45.714L208.1 46.572C205.743 44.0067 203.099 41.3287 200.17 38.538C197.189 41.4673 193.609 44.0153 189.432 46.182L188.86 45.142C192.951 42.9927 196.435 40.4967 199.312 37.654C202.207 34.8113 204.287 31.8473 205.552 28.762H191.07Z" fill="#29282D"/>
</g>
</svg>
