<svg width="56" height="56" viewBox="0 0 56 56" fill="none" xmlns="http://www.w3.org/2000/svg">
<path fill-rule="evenodd" clip-rule="evenodd" d="M10.5 29.4C10.5 29.0134 10.8134 28.7 11.2 28.7L45.92 28.7C46.3066 28.7 46.62 29.0134 46.62 29.4C46.62 29.7866 46.3066 30.1 45.92 30.1L11.2 30.1C10.8134 30.1 10.5 29.7866 10.5 29.4Z" fill="#29282D"/>
<path fill-rule="evenodd" clip-rule="evenodd" d="M33.7179 28.71C34.099 28.7751 34.3551 29.1368 34.29 29.5179C33.6456 33.2897 33.0068 36.1432 31.8444 39.0168C30.6823 41.8898 29.0099 44.7508 26.3328 48.5623C26.1106 48.8787 25.674 48.955 25.3577 48.7328C25.0413 48.5106 24.965 48.074 25.1872 47.7577C27.835 43.9878 29.4409 41.2252 30.5466 38.4918C31.6521 35.759 32.2708 33.0232 32.91 29.2821C32.9751 28.901 33.3368 28.6449 33.7179 28.71Z" fill="#29282D"/>
<path d="M10.08 19.04C10.08 16.5658 12.0858 14.56 14.56 14.56H29.68C32.1543 14.56 34.16 16.5658 34.16 19.04V19.04C34.16 21.5142 32.1543 23.52 29.68 23.52H14.56C12.0858 23.52 10.08 21.5142 10.08 19.04V19.04Z" fill="#D8425D"/>
<path fill-rule="evenodd" clip-rule="evenodd" d="M29.68 15.96H14.56C12.859 15.96 11.48 17.339 11.48 19.04C11.48 20.741 12.859 22.12 14.56 22.12H29.68C31.3811 22.12 32.76 20.741 32.76 19.04C32.76 17.339 31.3811 15.96 29.68 15.96ZM14.56 14.56C12.0858 14.56 10.08 16.5658 10.08 19.04C10.08 21.5142 12.0858 23.52 14.56 23.52H29.68C32.1543 23.52 34.16 21.5142 34.16 19.04C34.16 16.5658 32.1543 14.56 29.68 14.56H14.56Z" fill="#29282D"/>
<path d="M41.888 12.32C41.888 14.7942 39.8822 16.8 37.408 16.8C34.9337 16.8 32.928 14.7942 32.928 12.32C32.928 9.84576 34.9337 7.84 37.408 7.84C39.8822 7.84 41.888 9.84576 41.888 12.32Z" fill="#F9D811"/>
<path fill-rule="evenodd" clip-rule="evenodd" d="M37.408 15.4C39.109 15.4 40.488 14.021 40.488 12.32C40.488 10.619 39.109 9.24 37.408 9.24C35.7069 9.24 34.328 10.619 34.328 12.32C34.328 14.021 35.7069 15.4 37.408 15.4ZM37.408 16.8C39.8822 16.8 41.888 14.7942 41.888 12.32C41.888 9.84576 39.8822 7.84 37.408 7.84C34.9337 7.84 32.928 9.84576 32.928 12.32C32.928 14.7942 34.9337 16.8 37.408 16.8Z" fill="#29282D"/>
<path d="M46.368 19.04C46.368 20.8957 44.8637 22.4 43.008 22.4C41.1523 22.4 39.648 20.8957 39.648 19.04C39.648 17.1843 41.1523 15.68 43.008 15.68C44.8637 15.68 46.368 17.1843 46.368 19.04Z" fill="#2CB1C0"/>
<path fill-rule="evenodd" clip-rule="evenodd" d="M43.008 21C44.0905 21 44.968 20.1225 44.968 19.04C44.968 17.9575 44.0905 17.08 43.008 17.08C41.9255 17.08 41.048 17.9575 41.048 19.04C41.048 20.1225 41.9255 21 43.008 21ZM43.008 22.4C44.8637 22.4 46.368 20.8957 46.368 19.04C46.368 17.1843 44.8637 15.68 43.008 15.68C41.1523 15.68 39.648 17.1843 39.648 19.04C39.648 20.8957 41.1523 22.4 43.008 22.4Z" fill="#29282D"/>
</svg>
