<svg width="15" height="14" viewBox="0 0 15 14" fill="none" xmlns="http://www.w3.org/2000/svg">
<path d="M5.77926 12.25C5.77926 12.5709 6.04176 12.8334 6.36259 12.8334H8.69592C9.01676 12.8334 9.27926 12.5709 9.27926 12.25V11.6667H5.77926V12.25ZM7.52926 1.16669C5.27759 1.16669 3.44592 2.99835 3.44592 5.25002C3.44592 6.63835 4.14009 7.85752 5.19592 8.59835V9.91669C5.19592 10.2375 5.45842 10.5 5.77926 10.5H9.27926C9.60009 10.5 9.86259 10.2375 9.86259 9.91669V8.59835C10.9184 7.85752 11.6126 6.63835 11.6126 5.25002C11.6126 2.99835 9.78092 1.16669 7.52926 1.16669ZM9.19176 7.64169L8.69592 7.99169V9.33335H6.36259V7.99169L5.86676 7.64169C5.07926 7.09335 4.61259 6.20085 4.61259 5.25002C4.61259 3.64002 5.91926 2.33335 7.52926 2.33335C9.13926 2.33335 10.4459 3.64002 10.4459 5.25002C10.4459 6.20085 9.97926 7.09335 9.19176 7.64169Z" fill="#333930"/>
</svg>
