<svg width="15" height="14" viewBox="0 0 15 14" fill="none" xmlns="http://www.w3.org/2000/svg">
<g clip-path="url(#clip0_722:587)">
<path d="M4.17513 12.25H6.50846C6.50846 12.8916 5.98346 13.4166 5.3418 13.4166C4.70013 13.4166 4.17513 12.8916 4.17513 12.25ZM3.00846 11.6666H7.67513V10.5H3.00846V11.6666ZM9.7168 6.12498C9.7168 8.35331 8.16513 9.54331 7.51763 9.91665H3.16596C2.51846 9.54331 0.966797 8.35331 0.966797 6.12498C0.966797 3.70998 2.9268 1.74998 5.3418 1.74998C7.7568 1.74998 9.7168 3.70998 9.7168 6.12498ZM8.55013 6.12498C8.55013 4.35748 7.1093 2.91665 5.3418 2.91665C3.5743 2.91665 2.13346 4.35748 2.13346 6.12498C2.13346 7.56581 3.00263 8.39415 3.5043 8.74998H7.1793C7.68096 8.39415 8.55013 7.56581 8.55013 6.12498ZM12.5576 4.88248L11.7585 5.24998L12.5576 5.61748L12.9251 6.41665L13.2926 5.61748L14.0918 5.24998L13.2926 4.88248L12.9251 4.08331L12.5576 4.88248ZM11.1751 4.08331L11.7235 2.88165L12.9251 2.33331L11.7235 1.78498L11.1751 0.583313L10.6268 1.78498L9.42513 2.33331L10.6268 2.88165L11.1751 4.08331Z" fill="#333930"/>
</g>
<defs>
<clipPath id="clip0_722:587">
<rect width="14" height="14" fill="white" transform="translate(0.529297)"/>
</clipPath>
</defs>
</svg>
