<svg width="21" height="20" viewBox="0 0 21 20" fill="none" xmlns="http://www.w3.org/2000/svg">
<path d="M10.5293 1.66669C5.94592 1.66669 2.19592 5.41669 2.19592 10C2.19592 14.5834 5.94592 18.3334 10.5293 18.3334C15.1126 18.3334 18.8626 14.5834 18.8626 10C18.8626 5.41669 15.1126 1.66669 10.5293 1.66669ZM10.5293 16.6667C6.85426 16.6667 3.86259 13.675 3.86259 10C3.86259 6.32502 6.85426 3.33335 10.5293 3.33335C14.2043 3.33335 17.1959 6.32502 17.1959 10C17.1959 13.675 14.2043 16.6667 10.5293 16.6667ZM10.9459 5.83335H9.69592V10.8334L14.0293 13.5L14.6959 12.4167L10.9459 10.1667V5.83335Z" fill="#333930"/>
</svg>
